<svg xmlns="http://www.w3.org/2000/svg" viewBox="0 0 32 32" id="action_adventure" fill="none"><path fill="currentColor" d="M14.605 20.473a1.932 1.932 0 0 0-1.02-1.705l-.171-.092a1.922 1.922 0 0 0-2.034.126c-.544.4-1.007.9-1.36 1.476-.223.354-.325.77-.29 1.186l.037.457a1.925 1.925 0 0 0 1.753 1.77c.175.016.362.023.56.023.234 0 .483-.01.746-.031a1.945 1.945 0 0 0 1.78-1.929l-.001-1.281Zm-.91 1.281a1.03 1.03 0 0 1-.943 1.021c-.384.035-.77.038-1.154.01a1.017 1.017 0 0 1-.925-.938l-.037-.457a1.024 1.024 0 0 1 .155-.63c.29-.473.669-.886 1.116-1.216a1.032 1.032 0 0 1 1.076-.066l.17.092a1.023 1.023 0 0 1 .541.903v1.281ZM16.605 24.314a1.056 1.056 0 0 0-1.527.031 4.61 4.61 0 0 0-.787 1.172 1.053 1.053 0 0 0 .797 1.478 5.213 5.213 0 0 0 1.575.006 1.054 1.054 0 0 0 .78-1.527 4.72 4.72 0 0 0-.838-1.16Zm.03 1.71a.14.14 0 0 1-.106.076c-.43.064-.87.063-1.3-.005a.141.141 0 0 1-.105-.074.14.14 0 0 1-.005-.126 3.8 3.8 0 0 1 .633-.94.134.134 0 0 1 .098-.044.145.145 0 0 1 .109.044c.271.276.5.592.676.937a.141.141 0 0 1 0 .132Z"/><path fill="currentColor" d="M8.703 8.292a.456.456 0 0 0-.317.155 13.305 13.305 0 0 0-1.288 1.743 6.06 6.06 0 0 1-3.51 2.67l-.512.143a4.202 4.202 0 0 0-2.885 2.7 3.41 3.41 0 0 0-.14 1.716.455.455 0 0 0 .448.372h6.598c.012 1.135.097 3.026.476 4.793.14.641.502 1.212 1.025 1.609a48.19 48.19 0 0 1 2.005 1.601c.348.3.575.719.635 1.175l.28 2.088a1.453 1.453 0 0 0 1.157 1.232c.28.055.574.105.876.149a.455.455 0 0 0 .52-.45v-.868a.286.286 0 0 1 .572 0v1.017a.455.455 0 0 0 .427.454 18.792 18.792 0 0 0 1.748.025.455.455 0 0 0 .44-.455V29.12a.286.286 0 0 1 .571 0v.929a.455.455 0 0 0 .51.452c.415-.05.826-.115 1.22-.193a1.456 1.456 0 0 0 1.171-1.425V27.31a1.89 1.89 0 0 1 .608-1.386 16.097 16.097 0 0 1 1.736-1.405 2.73 2.73 0 0 0 1.177-2.067c.06-.831.14-2.092.17-3.372a.455.455 0 0 0-.91-.022c-.013.54-.035 1.077-.06 1.579l-4.185-2.848H30.82a.455.455 0 0 0 .447-.371 3.41 3.41 0 0 0-.139-1.718 4.11 4.11 0 0 0-1.447-1.992 6.288 6.288 0 0 0 2.215-1.603.455.455 0 0 0-.11-.675 8.076 8.076 0 0 0-1.73-.823c1.518-1.338 2.165-3.284 1.877-5.682a12.156 12.156 0 0 0-1.08-3.677.455.455 0 0 0-.858.15c-.003.025-.34 2.558-1.884 3.322a8.079 8.079 0 0 0-2.032 1.425l-.033-.371a.456.456 0 0 0-.668-.361c-1.418.756-2.122 1.944-2.47 3.008a12.536 12.536 0 0 0-2.098-1.908 8.815 8.815 0 0 0-10.291-.007l-.017.012a1.87 1.87 0 0 0-.763 1.633l.063.96-.768-.702a.455.455 0 0 0-.331-.118ZM22.559 23.77c-.647.452-1.26.948-1.838 1.486a2.804 2.804 0 0 0-.9 2.055v1.572a.543.543 0 0 1-.438.532 15.4 15.4 0 0 1-.643.113v-.408a1.197 1.197 0 1 0-2.392 0v.595c-.263.002-.53-.002-.794-.011v-.584a1.197 1.197 0 1 0-2.393 0v.333a13.69 13.69 0 0 1-.308-.058.542.542 0 0 1-.432-.46l-.28-2.087a2.788 2.788 0 0 0-.944-1.744 48.876 48.876 0 0 0-2.047-1.635 1.846 1.846 0 0 1-.687-1.077c-.362-1.686-.444-3.504-.456-4.602h6.637l.373.316a1.447 1.447 0 0 1 .5 1.257c-.192 1.851.521 3.244 2.006 3.922a4.319 4.319 0 0 0 1.799.43 3.103 3.103 0 0 0 1.753-.53 1.416 1.416 0 0 1 1.398-.129l.544.255c-.124.18-.279.335-.458.459Zm.831-2.072c-.016.252-.032.484-.047.69l-.009.067-.476-.223a2.32 2.32 0 0 0-2.29.198c-.734.492-1.63.5-2.667.028-1.412-.645-1.584-1.988-1.48-3.001a2.367 2.367 0 0 0-.46-1.667h1.686l5.743 3.908Zm1.817-15.093.062.684a.455.455 0 0 0 .835.208c.007-.012.755-1.14 2.412-1.96 1.096-.543 1.703-1.676 2.03-2.603.621 1.889 1.268 5.422-1.61 7.391a8.136 8.136 0 0 0-2.112-.086.455.455 0 1 0 .079.907 6.962 6.962 0 0 1 3.902.77c-.433.39-1.204.962-2.174 1.178a.451.451 0 0 0-.053.018c-.11-.04-.22-.078-.333-.11l-.493-.137a6.053 6.053 0 0 1-3.035-1.986c.257-.381.924-1.154 2.326-1.616 2.294-.757 2.913-2.297 2.939-2.362a.456.456 0 0 0-.848-.333c-.02.05-.514 1.216-2.377 1.83-1.37.453-2.168 1.18-2.592 1.704a13.015 13.015 0 0 0-.55-.804c.179-.852.602-1.923 1.592-2.693Zm-15.182 3.941a.455.455 0 0 0 .761-.366l-.137-2.088a.958.958 0 0 1 .392-.839 7.91 7.91 0 0 1 9.24 0 11.886 11.886 0 0 1 3.165 3.412 7.005 7.005 0 0 0 4.06 3.077l.494.138a3.295 3.295 0 0 1 2.265 2.108c.099.287.148.589.146.892H.909a2.69 2.69 0 0 1 .145-.891 3.295 3.295 0 0 1 2.267-2.11l.512-.143a6.969 6.969 0 0 0 4.039-3.066c.273-.44.573-.864.9-1.268l1.253 1.144Z"/><path fill="currentColor" d="m12.95 12.73 1.23 1.23a.456.456 0 0 0 .645 0l.667-.667.668.668a.456.456 0 0 0 .643 0l1.231-1.231a.456.456 0 0 0 0-.645l-.667-.667.667-.667a.455.455 0 0 0 0-.644l-1.23-1.231a.468.468 0 0 0-.644 0l-.668.667-.667-.667a.455.455 0 0 0-.644 0l-1.23 1.23a.457.457 0 0 0 0 .645l.666.667-.667.668a.455.455 0 0 0 0 .644Zm1.633-1.633-.667-.667.587-.587.667.667a.469.469 0 0 0 .645 0l.667-.667.587.587-.667.667a.456.456 0 0 0 0 .644l.667.667-.587.587-.668-.667a.453.453 0 0 0-.644 0l-.668.667-.587-.587.667-.667a.455.455 0 0 0 0-.644Z"/></svg>