<svg xmlns="http://www.w3.org/2000/svg" viewBox="0 0 32 32" id="action"><g clip-path="url(#a)"><path d="M5.294 10.641C2.375 10.641 0 8.255 0 5.321S2.375 0 5.294 0c2.92 0 5.293 2.387 5.293 5.32 0 2.935-2.374 5.321-5.293 5.321Zm0-9.186c-2.121 0-3.847 1.734-3.847 3.866 0 2.131 1.726 3.866 3.847 3.866 2.12 0 3.846-1.735 3.846-3.866 0-2.132-1.725-3.866-3.846-3.866Z"/><path d="M16.371 32c-1.78 0-3.227-1.455-3.227-3.244V21.8c-1.772-.098-2.762-.55-3.313-.99l-.17.178a.718.718 0 0 1-.138.113 3 3 0 0 1-3.03.095L4.537 20.13a3.79 3.79 0 0 1-2.257-4.267 4.46 4.46 0 0 1 1.833-2.783l4.843-3.357a4.798 4.798 0 0 1 4.495-.525l.45.16.428-1.697a2.607 2.607 0 0 1 2.577-2.395h.012c.772 0 1.498.341 1.993.937.498.598.703 1.382.562 2.15l-.903 4.906c-.074.403-.22.774-.424 1.103l9.258-8.76a2.73 2.73 0 0 1 3.271-.351 2.72 2.72 0 0 1 1.312 2.085 2.725 2.725 0 0 1-.886 2.301L19.598 20.161v8.595A3.24 3.24 0 0 1 16.371 32Zm-5.525-12.253c.396.267 1.253.617 3.021.617.4 0 .724.325.724.727v7.665c0 .987.799 1.79 1.78 1.79.982 0 1.78-.803 1.78-1.79V19.84c0-.205.086-.4.237-.538L30.128 8.56c.307-.278.458-.672.419-1.083a1.28 1.28 0 0 0-2.152-.814l-10 9.462a.723.723 0 0 1-.656.18l-1.962-.445a3.157 3.157 0 0 1-.727-.006.73.73 0 0 1-.182-.047l-.919-.371a.729.729 0 0 1-.42-.891.724.724 0 0 1 .85-.494l1.446.329a1.746 1.746 0 0 0 1.322-1.385l.903-4.907a1.16 1.16 0 0 0-.249-.952 1.135 1.135 0 0 0-.888-.415 1.154 1.154 0 0 0-1.144 1.095.782.782 0 0 1-.021.14l-.638 2.53a.727.727 0 0 1-.94.507l-1.223-.43a3.368 3.368 0 0 0-3.17.358l-4.842 3.356a3.01 3.01 0 0 0-1.237 1.879 2.335 2.335 0 0 0 1.416 2.64c.026.01.052.022.077.036l1.992 1.085c.47.257 1.038.251 1.503-.008l.641-.672.03-.03 1.576-1.678c.386-.64.69-1.201.498-1.576-.266-.239-.604-.475-.73-.507-.326-.057-.715.114-.976.447L8.339 17.66a.719.719 0 0 1-.917.187l-1.607-.89a.73.73 0 0 1-.285-.988.722.722 0 0 1 .983-.286l1.069.592 1.006-1.282c.597-.762 1.509-1.138 2.378-.976.616.113 1.323.748 1.525.94.037.034.07.073.098.115.81 1.18.01 2.502-.419 3.212l-.084.139a.702.702 0 0 1-.098.13l-1.142 1.195Z"/></g><defs><clipPath id="a"><path d="M0 0h32v32H0z"/></clipPath></defs></svg>