<svg xmlns="http://www.w3.org/2000/svg" viewBox="0 0 32 32" id="adventure"><path d="M31.75 8c-.15-.1-.35-.15-.5-.05l-10.2 3.65L13.9 9c.4-1 .6-1.9.6-2.65 0-1.35-.5-2.55-1.45-3.5-.95-.95-2.2-1.45-3.5-1.45A4.93 4.93 0 0 0 4.6 6.35c0 .95.35 2.1.95 3.5L.35 11.6c-.2.1-.35.3-.35.5v18c0 .2.1.35.25.45.1.05.2.1.3.1.05 0 .15 0 .2-.05l10.2-3.6 9.9 3.65c.1.05.25.05.35 0l10.4-3.7c.2-.1.35-.3.35-.5v-18c.05-.2-.05-.35-.2-.45ZM9.55 2.4c1.05 0 2 .4 2.7 1.15.75.7 1.15 1.7 1.15 2.7 0 .7-.25 1.65-.75 2.75-.9 2-2.4 4.1-3.1 5.05-.1-.1-.15-.2-.25-.35-.65-.9-1.7-2.4-2.45-3.95C6.1 8.3 5.75 7.1 5.75 6.2c-.05-2.05 1.7-3.8 3.8-3.8ZM30.9 26.05l-9.85 3.5-9.9-3.65c-.05 0-.15-.05-.2-.05-.05 0-.15 0-.2.05L1.1 29.35V12.5l5-1.75v.05c.05.05.05.1.1.15l.15.3c.05.05.05.1.1.15l.15.3c.05.05.05.1.1.15.05.1.1.2.15.25.05.05.05.1.1.15.05.1.1.15.15.25.05.05.05.1.1.15.05.1.1.15.15.25.05.05.05.1.1.15.05.1.1.15.15.25.05.05.05.1.1.15.05.1.1.15.15.25.05.05.05.1.1.1.05.1.1.15.15.2 0 .05.05.05.05.1.05.1.1.15.15.2l.05.05c.05.05.1.15.15.2l.05.05c.05.05.1.15.15.2l.15.15c.1.15.2.25.2.3.1.15.25.2.45.2.15 0 .3-.1.45-.2l.15-.15.05-.05.1-.1.05-.05c.05-.05.05-.1.1-.15 0-.05.05-.05.05-.1.05-.05.1-.1.1-.15.05-.05.05-.1.1-.15.05-.05.1-.1.15-.2.05-.05.05-.1.1-.15.05-.05.1-.1.15-.2.05-.05.1-.1.1-.15.05-.05.1-.15.15-.2.05-.05.1-.15.15-.2.05-.05.1-.15.15-.2.05-.05.1-.15.15-.2.05-.1.1-.15.15-.25.05-.05.1-.15.15-.2.05-.1.1-.15.15-.25.05-.1.1-.15.15-.25.05-.1.1-.15.15-.25.05-.1.1-.15.15-.25.05-.1.1-.15.15-.25.05-.1.1-.15.15-.25.05-.1.1-.15.15-.25.05-.1.1-.15.15-.25.05-.1.1-.2.15-.25.05-.1.1-.15.1-.25v-.05l7.4 2.7c.1.05.25.05.35 0L30.9 9.1v16.95Z"/><path d="M26.25 21.2c.1.05.25.05.35.05.3 0 .6-.1.85-.25.35-.25.6-.6.7-1 .1-.4 0-.85-.2-1.2-.25-.35-.6-.6-1-.7-.85-.2-1.75.35-1.95 1.2-.1.4 0 .85.2 1.2.3.35.65.6 1.05.7Zm-.15-1.7c.05-.3.35-.45.6-.4.15.05.25.1.3.25.05.1.1.25.05.4-.05.15-.1.25-.25.3-.1.05-.25.1-.4.05-.15-.05-.25-.1-.3-.25v-.35ZM5.5 19.55l-.35.2-.2-.35c-.15-.25-.5-.35-.75-.15-.25.15-.35.5-.15.75l.2.35-.35.2c-.25.15-.35.5-.15.75.05.2.25.25.4.25.1 0 .2-.05.3-.1l.35-.2.2.35c.1.15.3.25.45.25.1 0 .2-.05.3-.1.25-.15.35-.5.15-.75l-.2-.35.35-.2c.25-.15.35-.5.15-.75-.1-.25-.45-.3-.7-.15ZM10.65 21.05c-.65 0-1.5-.1-2.05-.25-.3-.05-.6.15-.65.45-.05.3.15.6.45.65.55.1 1.45.25 2.25.25.3 0 .55-.25.55-.55 0-.3-.25-.55-.55-.55ZM14.75 19.15c-.35.5-.75.9-1.25 1.2-.15.1-.35.2-.55.3-.3.1-.4.45-.3.75.1.2.3.35.5.35.05 0 .15 0 .2-.05.25-.1.45-.2.65-.35.6-.4 1.1-.85 1.55-1.45.2-.25.15-.6-.1-.75-.15-.3-.5-.25-.7 0ZM18.75 15.55c-.55 0-.85.15-1.15.25-.7.3-1.3.95-1.45 1.15-.2.25-.15.6.05.8.1.1.25.15.35.15.15 0 .3-.05.4-.2.25-.3.65-.65 1.05-.85.3-.1.4-.15.75-.2.3 0 .55-.25.55-.55 0-.3-.25-.55-.55-.55ZM20.8 16.4c-.1.3 0 .6.3.75.55.25 1.35.65 1.95 1.1.1.05.2.1.3.1.2 0 .35-.1.45-.25.15-.25.1-.6-.15-.75-.7-.45-1.5-.9-2.15-1.15-.25-.2-.55-.05-.7.2ZM9.55 7.6c.95 0 1.7-.75 1.7-1.7s-.75-1.7-1.7-1.7-1.7.75-1.7 1.7.8 1.7 1.7 1.7Zm0-2.3c.3 0 .6.25.6.6 0 .3-.25.6-.6.6-.3 0-.6-.25-.6-.6.05-.3.3-.6.6-.6Z"/></svg>