<svg xmlns="http://www.w3.org/2000/svg" viewBox="0 0 32 32" id="broken-loupe"><path d="M12.305 24.615A12.303 12.303 0 0 1 .937 17.018 12.31 12.31 0 0 1 9.904.236 12.303 12.303 0 0 1 24.61 12.308a12.31 12.31 0 0 1-12.305 12.307Zm0-22.154A9.842 9.842 0 0 0 2.65 14.23a9.847 9.847 0 0 0 13.422 7.175 9.844 9.844 0 0 0 6.077-9.096 9.847 9.847 0 0 0-9.844-9.847Z"/><path d="M17.808 7.915a1.097 1.097 0 0 1-.319.78l-8.793 8.792a1.102 1.102 0 0 1-1.884-.78 1.103 1.103 0 0 1 .323-.78l8.793-8.792a1.098 1.098 0 0 1 1.88.78Z"/><path d="M16.705 17.808a1.098 1.098 0 0 1-.78-.319L7.133 8.696a1.104 1.104 0 0 1 1.56-1.56l8.792 8.793a1.1 1.1 0 0 1-.78 1.879ZM30.762 32a1.232 1.232 0 0 1-.873-.357l-9.844-9.846a1.236 1.236 0 0 1 1.747-1.748l9.844 9.846A1.231 1.231 0 0 1 30.762 32Z"/></svg>