<svg xmlns="http://www.w3.org/2000/svg" viewBox="0 0 32 32" id="comedy"><g clip-path="url(#a)"><path d="M16 25a7.01 7.01 0 0 1-6.594-4.666 1 1 0 0 1 1.886-.668A5.006 5.006 0 0 0 16 23c2.11 0 4.002-1.34 4.708-3.334a1 1 0 0 1 1.886.668A7.01 7.01 0 0 1 16 25Z"/><path d="M16 32C7.178 32 0 24.822 0 16S7.178 0 16 0s16 7.178 16 16-7.178 16-16 16Zm0-30C8.28 2 2 8.28 2 16s6.28 14 14 14 14-6.28 14-14S23.72 2 16 2Z"/><path d="M13 14a.997.997 0 0 1-.707-.293 2.54 2.54 0 0 0-3.586 0 .999.999 0 1 1-1.414-1.414 4.538 4.538 0 0 1 6.414 0A.999.999 0 0 1 13 14ZM24 14a.997.997 0 0 1-.707-.293 2.54 2.54 0 0 0-3.586 0 .999.999 0 1 1-1.414-1.414 4.538 4.538 0 0 1 6.414 0A.999.999 0 0 1 24 14Z"/></g><defs><clipPath id="a"><path d="M0 0h32v32H0z"/></clipPath></defs></svg>