<svg xmlns="http://www.w3.org/2000/svg" viewBox=" 0 0 32 32" id="crime"><path d="M24.93 2.6a7.037 7.037 0 0 0-5.511 2.663l-3.884 1.07a.372.372 0 0 0-.28.36v2.372l-2.441-1.22a.372.372 0 0 0-.175-.047.372.372 0 0 0-.15.709l2.767 1.384v2.755a.372.372 0 0 0 .279.35l3.884 1.07c1.294 1.62 3.277 2.673 5.511 2.673a7.081 7.081 0 0 0 6.663-4.697.372.372 0 1 0-.698-.256 6.342 6.342 0 0 1-5.965 4.21 6.323 6.323 0 0 1-5.023-2.489.372.372 0 0 0-.198-.128L16 12.367V6.96l3.71-1.011a.373.373 0 0 0 .197-.128 6.313 6.313 0 0 1 5.023-2.477 6.32 6.32 0 0 1 6.326 6.326.372.372 0 1 0 .744 0c0-3.9-3.17-7.07-7.07-7.07Zm0 2.977a4.099 4.099 0 0 0-4.093 4.093 4.099 4.099 0 0 0 4.093 4.093 4.099 4.099 0 0 0 4.093-4.093 4.099 4.099 0 0 0-4.093-4.093Zm0 .744A3.343 3.343 0 0 1 28.28 9.67a3.343 3.343 0 0 1-3.349 3.349 3.343 3.343 0 0 1-3.349-3.35 3.343 3.343 0 0 1 3.35-3.348Zm-14.5.36a.371.371 0 0 0-.104.024l-2.977.744a.372.372 0 1 0 .186.72l2.977-.743a.374.374 0 1 0-.082-.745ZM7.035 9.658a.372.372 0 0 0-.047.012.372.372 0 0 0-.29.372v2.604H4.058a.373.373 0 0 0-.325.28l-1.07 3.895C1.05 18.116 0 20.093 0 22.32c0 3.9 3.17 7.07 7.07 7.07 3.9 0 7.07-3.17 7.07-7.07 0-2.228-1.05-4.205-2.663-5.5l-1.07-3.895a.373.373 0 0 0-.36-.28H7.441v-2.604a.372.372 0 0 0-.407-.384Zm-2.663 3.733h5.395L10.78 17.1c.023.08.072.15.14.198a6.313 6.313 0 0 1 2.476 5.023 6.32 6.32 0 0 1-6.325 6.325 6.32 6.32 0 0 1-6.326-6.325c0-2.048.97-3.867 2.477-5.023a.373.373 0 0 0 .14-.198l1.011-3.71Zm2.698 4.837a4.099 4.099 0 0 0-4.093 4.093 4.099 4.099 0 0 0 4.093 4.093 4.099 4.099 0 0 0 4.093-4.093 4.099 4.099 0 0 0-4.093-4.093Zm0 .744a3.343 3.343 0 0 1 3.349 3.349 3.343 3.343 0 0 1-3.35 3.349 3.343 3.343 0 0 1-3.348-3.35 3.343 3.343 0 0 1 3.349-3.348Z"/></svg>