<svg xmlns="http://www.w3.org/2000/svg" viewBox='0 0 32 32' id='crime' fill="none"><g fill="currentColor"><path d="M9.175 15.917a.64.64 0 0 0 .64-.64V14.26a.64.64 0 1 0-1.28 0v1.017a.64.64 0 0 0 .64.64Z"/><path d="m26.526 14.458.295-1.018a1.786 1.786 0 0 0-1.71-2.284h-.518V5.19A5.197 5.197 0 0 0 19.403 0h-6.797a5.197 5.197 0 0 0-5.197 5.19v5.972h-.525a1.787 1.787 0 0 0-1.709 2.278l.294 1.012a9.152 9.152 0 0 0-2.777 14.861 9.153 9.153 0 0 0 13.306-.371 9.158 9.158 0 1 0 10.528-14.484ZM8.69 5.191a3.917 3.917 0 0 1 3.917-3.91h6.797a3.917 3.917 0 0 1 3.91 3.91v5.971h-.973V5.191a2.944 2.944 0 0 0-2.937-2.938h-6.797A2.944 2.944 0 0 0 9.662 5.19v5.971h-.973V5.191Zm10.125 8.25.294 1.01a9.202 9.202 0 0 0-3.11 2.28 9.184 9.184 0 0 0-3.104-2.28l.288-1.01a1.786 1.786 0 0 0-1.716-2.285h-.524V5.19a1.664 1.664 0 0 1 1.664-1.658h6.797A1.658 1.658 0 0 1 21.06 5.19v5.971h-.532a1.786 1.786 0 0 0-1.715 2.278ZM1.277 22.83a7.93 7.93 0 0 1 5.184-7.399.64.64 0 0 0 .39-.78l-.454-1.563a.531.531 0 0 1 .077-.447.498.498 0 0 1 .403-.199h4.583a.498.498 0 0 1 .497.413.512.512 0 0 1-.01.233l-.43 1.562a.64.64 0 0 0 .398.781 7.943 7.943 0 0 1 3.315 2.317 9.113 9.113 0 0 0-1.075 2.182A5.76 5.76 0 0 0 9.2 17.082a5.76 5.76 0 0 0-1.907 11.169 2.31 2.31 0 0 0-.474 1.395c.003.258.051.513.14.755a7.88 7.88 0 0 1-5.683-7.571Zm7.892 4.48a4.48 4.48 0 1 1 0-8.959 4.48 4.48 0 0 1 0 8.959Zm0 3.43a1.076 1.076 0 0 1 0-2.15 5.76 5.76 0 0 0 4.947-2.835 9.092 9.092 0 0 0 1.069 2.182 7.827 7.827 0 0 1-6.01 2.784l-.006.02Zm19.2-2.31a7.871 7.871 0 0 1-3.366 1.99 2.26 2.26 0 0 0 .14-.755 2.311 2.311 0 0 0-.473-1.395 5.76 5.76 0 0 0-1.882-11.168 5.76 5.76 0 0 0 0 11.52 1.075 1.075 0 1 1 0 2.15 7.885 7.885 0 0 1-2.713-15.29.64.64 0 0 0 .403-.832l-.46-1.562a.513.513 0 0 1 .082-.447.498.498 0 0 1 .404-.199h4.582a.498.498 0 0 1 .403.198.53.53 0 0 1 .077.448l-.454 1.562a.64.64 0 0 0 .39.781 7.878 7.878 0 0 1 2.874 12.98l-.007.019Zm-10.048-5.587a4.48 4.48 0 1 1 4.48 4.48 4.48 4.48 0 0 1-4.448-4.5l-.032.02Z"/><path d="M22.82 13.62a.64.64 0 0 0-.64.64v1.017a.64.64 0 0 0 1.28 0V14.26a.64.64 0 0 0-.64-.64Z"/></g></svg>