<svg xmlns="http://www.w3.org/2000/svg" viewBox="0 0 32 32" id="documentary"><path d="M23.688 7.284a.424.424 0 0 0 .57-.142c.033-.052.213-.188.455-.21.224-.019.423.068.594.262a.415.415 0 0 0 .62-.553c-.35-.393-.813-.583-1.306-.533-.45.045-.894.298-1.08.615a.41.41 0 0 0 .147.56ZM26.54 9.687a.416.416 0 0 0-.415.416v.346a.416.416 0 1 0 .831 0v-.346a.417.417 0 0 0-.415-.416Z"/><path d="M32 10.813c0-.7-.569-1.27-1.27-1.27-.415 0-.782.205-1.014.515L28.6 9.985l-.624-.773a4.208 4.208 0 0 0-4.025-1.503l-1.494.243a1.64 1.64 0 0 0-1.37-.615 1.637 1.637 0 0 0-1.083.485L11.04 6.395a8.773 8.773 0 0 0-8.425 3.667A14.39 14.39 0 0 0 .14 20.342l.675 4.835a.858.858 0 0 0 .845.736h3.203a.85.85 0 0 0 .766-.477.85.85 0 0 0-.09-.899.447.447 0 0 0-.088-.085l-.487-.343 1.11-2.655 1.41 3.892c.12.34.444.567.805.567h3.15c.363 0 .679-.22.803-.56a.847.847 0 0 0-.252-.946l-.689-.582-.746-3.199h5.922l-.426 4.35a.855.855 0 0 0 .85.937h3.082c.33 0 .625-.185.769-.483a.847.847 0 0 0-.102-.902.401.401 0 0 0-.103-.092l-.4-.252 1.34-3.334 1.826 4.563c.005.012.01.025.016.036a.851.851 0 0 0 .76.465h3.17c.358 0 .67-.215.798-.55a.846.846 0 0 0-.23-.941l-.993-.883-1.32-8.724 2.5.013h.015a3.282 3.282 0 0 0 3.27-2.884c.414-.212.701-.637.701-1.132Zm-1.27-.44a.439.439 0 1 1 0 .877.439.439 0 0 1 0-.877ZM10.526 24.146c.02.087.067.166.136.224l.796.67-.014.04H8.292l-.023-.018-1.607-4.438h3.041l.822 3.522Zm17.491-10.152-4.614-.022a.423.423 0 0 0-.418.412.415.415 0 0 0 .413.417l1.275.007 1.363 9.001a.414.414 0 0 0 .136.248l1.105.983-.017.04-3.19-.013-2.133-5.335.243-.605a.415.415 0 1 0-.77-.31l-2.16 5.375a.415.415 0 0 0 .164.506l.585.37-3.096.012-.024-.026.757-7.725a.416.416 0 0 0-.827-.082l-.25 2.546h-9.79l1.61-3.85a.415.415 0 0 0-.766-.32l-3.54 8.47a.414.414 0 0 0 .143.499l.668.474-.017.016H1.663a.023.023 0 0 1-.022-.02l-.675-4.834a13.557 13.557 0 0 1 2.332-9.689 7.942 7.942 0 0 1 7.621-3.323l8.662 1.379a1.53 1.53 0 0 0-.037.422c.032.612.415 1.137.963 1.376-.089.459-.14 1.217.225 1.95a.414.414 0 0 0 .558.187.417.417 0 0 0 .187-.557c-.403-.81-.08-1.716-.076-1.724a.415.415 0 0 0-.337-.559.776.776 0 0 1-.69-.718c-.02-.422.32-.783.76-.807a.801.801 0 0 1 .758.427c.082.16.258.25.437.22l1.767-.286c1.22-.221 2.46.241 3.238 1.206l.737.915a.41.41 0 0 0 .297.153l1.103.073c.027.572.432 1.042.971 1.17a2.454 2.454 0 0 1-2.426 1.951Z"/></svg>