<svg xmlns="http://www.w3.org/2000/svg" viewBox="0 0 32 32" id="drama"><g clip-path="url(#a)"><path d="M16.234 13.129a.4.4 0 1 0-.794-.09c-.177 1.559-1.296 2.799-2.785 3.086-1.488.288-2.99-.449-3.733-1.83a.4.4 0 1 0-.704.379c.779 1.446 2.239 2.312 3.793 2.312.263 0 .53-.025.795-.076 1.834-.353 3.212-1.873 3.428-3.781ZM8.69 9.393a.4.4 0 0 0 .317-.468C8.771 7.699 7.61 6.887 6.416 7.118c-.58.112-1.08.45-1.408.952a2.284 2.284 0 0 0-.327 1.689.4.4 0 1 0 .785-.152c-.075-.386 0-.777.211-1.1.208-.319.524-.533.89-.604.76-.145 1.503.38 1.655 1.173a.4.4 0 0 0 .468.317ZM13.622 8.436a.4.4 0 0 0 .393-.476c-.075-.387 0-.778.211-1.1.208-.32.524-.534.89-.604.76-.146 1.503.38 1.656 1.173a.4.4 0 0 0 .784-.152c-.236-1.226-1.399-2.038-2.591-1.807-.58.112-1.08.45-1.408.952a2.284 2.284 0 0 0-.327 1.69.4.4 0 0 0 .392.324Z"/><path d="m31.713 14.143-11.533-3.41c.697-5.499-.356-10.335-.375-10.421a.4.4 0 0 0-.466-.305L.324 3.672a.4.4 0 0 0-.319.456c.023.143 2.25 13.362 11.466 17.898.575 4.081 2.158 7.4 4.706 9.862a.4.4 0 0 0 .354.105c11.37-2.226 15.417-17.214 15.456-17.365a.4.4 0 0 0-.273-.485ZM.866 4.383 19.1.867c.435 2.343 2.338 14.902-5.367 21.214-9.5-2.997-12.4-15.363-12.867-17.7Zm15.717 26.783c-2.224-2.216-3.64-5.16-4.232-8.744.438.18.885.348 1.353.488a.398.398 0 0 0 .363-.07c3.724-2.957 5.361-7.256 5.998-11.308l11.041 3.265c-.69 2.281-4.772 14.305-14.523 16.369Z"/><path d="M19.195 22.332c-1.791-.53-3.713.186-4.783 1.781a.4.4 0 0 0 .663.446c.875-1.303 2.44-1.89 3.894-1.46 1.454.43 2.448 1.773 2.472 3.342a.4.4 0 0 0 .4.394h.006a.4.4 0 0 0 .393-.407c-.03-1.92-1.254-3.566-3.045-4.096ZM22.012 18.783a.4.4 0 0 0 .497-.27c.248-.842 1.106-1.333 1.915-1.094.389.115.709.38.9.748.194.371.234.801.113 1.212a.4.4 0 0 0 .766.226c.18-.61.12-1.252-.17-1.809a2.278 2.278 0 0 0-1.382-1.144c-1.23-.364-2.535.37-2.909 1.634a.4.4 0 0 0 .27.497Z"/></g><defs><clipPath id="a"><path d="M0 0h32v32H0z"/></clipPath></defs></svg>