<svg xmlns="http://www.w3.org/2000/svg" viewBox="0 0 32 32" id="fantasy"><g clip-path="url(#a)"><path d="M29.933 28.83c-.04-.04.039 0-6.028-3.289v-2.114c-.118-.547-.235-1.135-.392-1.683-.156-.626 0-1.291.392-1.8.743-.9 1.057-1.175 1.33-1.997a3.401 3.401 0 0 0-.43-3.053c-1.135-1.683-1.448-2.114-1.644-2.623-.196-.548-.313-1.096-.274-1.683l.157-2.661c.039-.431.391-.744.782-.705.079 0 .118 0 .196.04l2.192.782a.857.857 0 0 0 1.096-.509c.118-.274.04-.626-.156-.861l-4.032-4.971C21.869.176 19.795-.372 17.955.254L13.1 1.977a6.16 6.16 0 0 0-3.484 3.17L8.208 8.201c-.587 1.252-.665 2.661-.313 3.953.235.822-.118-.391.94 3.249.117.43.156.861.078 1.292-.079.704-.314 1.057-.822 1.996-.51.979-.666 2.114-.392 3.17l.392 1.606v2.074l-5.99 3.25c-.313.195-.547.508-.704.86l-.313.783c-.235.587.039 1.253.626 1.488.157.039.274.078.43.078h27.715c.626 0 1.135-.509 1.135-1.135 0-.157-.04-.313-.078-.43-.314-.784-.431-1.214-.98-1.606Zm-11.117-1.723-5.676-.04v-4.07h.861c-.078.117-.078-.04-.078 2.897 0 .234.157.391.392.391h3.366c.117 0 .235-.078.313-.157.078-.117.078-.039.078-2.348 0-.587 0-.666-.078-.783h.861c0 4.384 0 4.11-.039 4.11Zm-9.942-3.288h3.483v1.566H8.874v-1.566Zm9.981-.783h-.861a.356.356 0 0 0-.313-.157h-3.367c-.117 0-.234.079-.313.157h-.822v-.94l5.676.04v.9Zm-1.566 2.505h-2.583v-1.918h2.583v1.918Zm2.349-1.722h3.484v1.566h-3.484v-1.566Zm3.68-4.384c-.548.704-.783 1.605-.548 2.466l.274 1.096h-3.367v-.94a.827.827 0 0 0-.822-.822H13.18a.827.827 0 0 0-.822.823v.978H8.795l-.313-1.33c-.196-.901-.078-1.801.313-2.623l.118-.196h14.913l-.508.548Zm-.783-6.655c.391.9 1.683 2.427 1.957 3.21.235.666.156 1.41-.157 2.036H9.305c.351-.705.469-1.449.39-2.232-.039-.508-.078-.508-.822-3.053h13.662v.04ZM8.913 8.514l1.409-3.054a5.22 5.22 0 0 1 3.053-2.779L18.229.96a3.917 3.917 0 0 1 4.306 1.174c4.501 5.441 4.149 5.01 4.11 5.089-.04.078.352.196-6.107-2.075-.195-.078-.43.04-.509.235-.078.196.04.43.235.51l2.545.9c-.314.273-.51.626-.51 1.056-.156 2.936-.234 3.25 0 4.15H8.679a4.877 4.877 0 0 1 .235-3.484Zm20.942 22.742H2.14a.35.35 0 0 1-.353-.352c0-.04 0-.078.04-.157.352-.822.391-1.017.704-1.252L8.6 26.168h3.797v.939c0 .43.353.822.822.822h5.637c.43 0 .822-.352.822-.822v-.94h3.797l6.067 3.328c.353.235.392.509.705 1.252.078.196 0 .392-.196.47-.078 0-.117.04-.195.04Z"/></g><defs><clipPath id="a"><path d="M0 0h32v32H0z"/></clipPath></defs></svg>