<svg xmlns="http://www.w3.org/2000/svg" viewBox="0 0 32 32" id="hearts"><path d="M13.2 18.85c-.15 0-.25-.05-.35-.15L4.6 10.35c-2.4-2.5-2.35-6.4.1-8.85C5.65.55 6.95 0 8.35 0c1.65 0 3.4.7 4.85 1.9C14.6.7 16.4 0 18.05 0c1.4 0 2.7.5 3.65 1.5 2.4 2.4 2.45 6.4.1 8.9l-8.25 8.3c-.1.1-.25.15-.35.15ZM8.35 1C7.2 1 6.2 1.4 5.4 2.2c-2.05 2.1-2.1 5.35-.1 7.5l7.85 7.95 7.9-7.95c2-2.1 1.95-5.45-.1-7.5-.75-.8-1.75-1.2-2.9-1.2-1.55 0-3.2.7-4.5 1.9-.2.2-.5.2-.7 0-1.3-1.2-3-1.9-4.5-1.9ZM23.75 27c-.15 0-.25-.05-.35-.15l-4.1-4.15c-1.3-1.35-1.25-3.45.05-4.8.5-.5 1.1-.75 1.8-.75.85 0 1.8.4 2.6 1 .8-.65 1.75-1 2.6-1 .7 0 1.3.25 1.8.75 1.3 1.3 1.3 3.45.05 4.75l-4.1 4.15c-.1.15-.2.2-.35.2Zm-2.6-8.8c-.45 0-.8.15-1.1.45-.95.95-.95 2.4-.05 3.35l3.75 3.8L27.5 22c.9-.95.9-2.45-.05-3.35-.3-.3-.65-.45-1.1-.45-.7 0-1.55.4-2.25 1.05-.2.2-.5.2-.7 0-.65-.65-1.55-1.05-2.25-1.05ZM12.4 32c-.15 0-.25-.05-.35-.15l-2.75-2.8c-.9-.95-.9-2.5.05-3.45.35-.35.8-.55 1.3-.55.55 0 1.2.25 1.75.65.55-.4 1.2-.65 1.75-.65.5 0 .95.2 1.3.55.95.95.95 2.5.05 3.45l-2.75 2.8c-.1.1-.25.15-.35.15Zm-1.75-5.9c-.25 0-.45.1-.6.25-.55.55-.55 1.45 0 2.05l2.4 2.4 2.4-2.4c.55-.55.55-1.5-.05-2.05a.828.828 0 0 0-.6-.25c-.45 0-1 .25-1.4.65-.2.2-.5.2-.7 0-.5-.4-1.05-.65-1.45-.65Z"/></svg>