<svg xmlns="http://www.w3.org/2000/svg" viewBox="0 0 32 32" id="history"><g clip-path="url(#a)"><path d="M31.517 27.8H29.09v-2.742a.484.484 0 0 0-.485-.487H3.394a.484.484 0 0 0-.485.487V27.8H.485a.484.484 0 0 0-.485.484v3.233a.485.485 0 0 0 .485.485H31.51a.485.485 0 0 0 .483-.485v-3.233a.485.485 0 0 0-.477-.484ZM3.879 25.543h24.243v2.26H3.88v-2.26Zm27.147 5.483H.97V28.77h30.056v2.257ZM.485 8.728h2.424v2.742a.484.484 0 0 0 .485.485h25.212a.483.483 0 0 0 .485-.485V8.728h2.426a.488.488 0 0 0 .216-.918L16.217.05a.487.487 0 0 0-.433 0L.268 7.81a.486.486 0 0 0 .217.918Zm27.637 2.264H3.88V8.728h24.243v2.264ZM16.002 1.026l13.46 6.732H2.539l13.463-6.732ZM7.11 13.092v10.344a.485.485 0 0 1-.97 0V13.092a.485.485 0 1 1 .97 0Zm3.232 0v10.344a.485.485 0 0 1-.97 0V13.092a.485.485 0 1 1 .97 0Zm4.527 0v10.344a.487.487 0 0 1-.97 0V13.092a.486.486 0 0 1 .965 0h.005Zm3.233 0v10.344a.486.486 0 0 1-.971 0V13.092a.486.486 0 0 1 .97 0Zm4.525 0v10.344a.485.485 0 0 1-.97 0V13.092a.484.484 0 1 1 .97 0Zm3.233 0v10.344a.485.485 0 0 1-.968 0V13.092a.485.485 0 0 1 .968 0ZM16 6.782a2.1 2.1 0 1 0 0-4.201 2.1 2.1 0 0 0 0 4.202Zm0-3.232a1.131 1.131 0 1 1 0 2.263 1.132 1.132 0 0 1 0-2.257V3.55Z"/></g><defs><clipPath id="a"><path d="M0 0h32v32.001H0z"/></clipPath></defs></svg>