<svg xmlns="http://www.w3.org/2000/svg" viewBox="0 0 32 32" id="horror" fill="none"><path fill="currentColor" d="M28.657 12.136h-5.89v-1.698C22.766 5.82 19.74 2 16.08 2c-3.662 0-6.687 3.82-6.687 8.438v1.698h-5.89c-1.858 0-3.344 1.91-3.344 4.192L0 20.308c0 .213.053.372.106.584.265.743.955 1.22 1.751 1.168a1.758 1.758 0 0 0 1.645-1.54l.107-.795c.212-.796.53-1.274.796-1.274.265 0 .583.265.796.637l.424.849c.478.85 1.008 1.327 1.592 1.433.637.106 1.168-.265 1.645-.69l-.955 5.413c-.212 1.008.16 2.07.85 2.653.53.425 1.167.53 1.803.319l1.646-.637c.796-.319 1.645-.16 2.335.371l1.008.796a.57.57 0 0 0 .584.053c.053.053.159.053.212.053.106 0 .212-.053.318-.106l1.009-.796c.69-.53 1.539-.69 2.335-.371l1.645.637c.637.265 1.273.159 1.804-.319.69-.583 1.061-1.645.85-2.653l-1.01-5.413c.638.53 1.274.743 1.858.69.372-.053.85-.213 1.274-.85 0-.052.053-.052.053-.105l.477-1.327c.213-.425.531-.584.85-.478.159.053.318.213.371.425l.425 1.91c.159.584.637 1.062 1.273 1.168.637.106 1.22-.16 1.54-.743.424-.69.583-1.54.583-2.813v-2.229c0-2.282-1.486-4.192-3.343-4.192Zm2.282 6.368c0 1.061-.107 1.698-.478 2.282-.16.212-.371.212-.478.212-.053 0-.318-.053-.371-.318l-.425-1.91c-.159-.584-.53-1.062-1.061-1.221-.85-.265-1.751.16-2.176 1.061v.053l-.477 1.327c-.213.319-.425.319-.478.319-.318.052-.796-.16-1.22-.584l-.956-.902a.564.564 0 0 0-.637-.107c-.212.107-.318.319-.265.584l1.274 6.952c.159.743-.16 1.38-.478 1.645-.16.106-.424.266-.743.16l-1.645-.637c-1.114-.478-2.388-.266-3.396.53l-.85.637-.902-.69c-.636-.53-1.38-.743-2.122-.743-.425 0-.85.106-1.22.266l-1.699.583a.707.707 0 0 1-.743-.159c-.318-.265-.637-.902-.478-1.645l1.274-6.952a.534.534 0 0 0-.265-.584c-.213-.106-.425-.053-.637.107l-.955.902c-.319.318-.743.636-.956.583-.159 0-.424-.159-.796-.902l-.424-.796c-.319-.637-1.008-1.273-1.857-1.22-.584.053-1.327.477-1.699 2.07v.052l-.106.85c-.053.424-.424.583-.69.636-.106 0-.53 0-.69-.424-.053-.106-.053-.16-.053-.213l.16-3.98c0-1.75 1.008-3.13 2.281-3.13h6.422c.318 0 .53-.213.53-.531v-2.23c0-4.032 2.548-7.376 5.626-7.376 3.078 0 5.625 3.344 5.625 7.377v2.229c0 .318.212.53.53.53h6.422c1.273 0 2.282 1.38 2.282 3.131v2.176Z"/><path fill="currentColor" d="M17.83 7.944a.513.513 0 0 0-.742 0 2.497 2.497 0 0 0-.743 1.75c0 .638.265 1.274.743 1.752a2.497 2.497 0 0 0 1.751.743c.637 0 1.274-.265 1.751-.743a.482.482 0 0 0 .16-.371.482.482 0 0 0-.16-.372l-2.76-2.76Zm0 2.812a1.45 1.45 0 0 1-.424-1.008c0-.212.053-.372.106-.584l1.91 1.91a1.483 1.483 0 0 1-1.591-.318ZM15.814 9.748c0-.69-.265-1.274-.743-1.751a.513.513 0 0 0-.743 0l-2.76 2.76a.482.482 0 0 0-.158.37c0 .16.053.266.159.372a2.497 2.497 0 0 0 1.751.743c.637 0 1.274-.265 1.751-.743a2.497 2.497 0 0 0 .743-1.751Zm-1.486 1.008a1.483 1.483 0 0 1-1.592.319l1.91-1.91c.054.158.107.37.107.583 0 .371-.16.743-.425 1.008ZM16.08 12.826c-1.221 0-2.176 1.433-2.176 3.237s.955 3.237 2.176 3.237c1.22 0 2.175-1.433 2.175-3.237s-.955-3.237-2.175-3.237Zm0 5.413c-.531 0-1.115-.955-1.115-2.176 0-1.22.584-2.176 1.115-2.176.53 0 1.114.955 1.114 2.176 0 1.22-.584 2.176-1.114 2.176Z"/></svg>