<svg xmlns="http://www.w3.org/2000/svg" viewBox="0 0 32 32" id="horror"><path d="M15.672 28.672a3.07 3.07 0 0 1-1.79-.57c-.444-.31-.824-.755-1.11-1.29-.64-1.22-1.544-1.18-2.024-1.054-.48.13-.99.165-1.515.115-1.225-.12-2.13-.655-2.615-1.545-.604-1.105-.494-2.73.275-4.235.345-.675.415-1.26.21-1.735-.2-.45-.675-.75-1.19-.75H5.75c-1.715 0-2.835-.4-3.335-1.19-.545-.864-.13-1.87-.045-2.054.64-2.82-.09-4.79-2.245-6.02a.243.243 0 0 1-.115-.28c.03-.11.12-.19.245-.18l.36.01c1.42.04 2.775.405 3.93 1.06 2.604 1.48 4.304 1.525 5.524.145.3-.34.505-.755.65-1.084 1.045-2.335 2.29-3.79 3.805-4.435.43-.185.935-.28 1.5-.28.704 0 1.33.13 1.854.4 1.3.67 2.415 2.08 3.415 4.315.145.324.35.744.65 1.08 1.215 1.374 2.92 1.33 5.52-.146 1.15-.655 2.509-1.02 3.924-1.06l.36-.01c.12 0 .215.07.245.18a.243.243 0 0 1-.115.28c-2.15 1.23-2.885 3.2-2.245 6.02.085.185.5 1.19-.045 2.055-.51.815-1.68 1.204-3.48 1.19-.515.01-1.004.294-1.204.75-.21.474-.14 1.06.21 1.734.775 1.505.88 3.125.28 4.235-.485.89-1.39 1.425-2.615 1.545a4.207 4.207 0 0 1-1.51-.115c-.505-.135-1.225-.12-1.81.705-.72 1.01-1.625 1.714-2.625 2.03-.4.12-.785.184-1.16.184Zm-4.469-3.474c.6 0 1.41.25 2.005 1.375.245.47.575.854.955 1.114.745.515 1.57.62 2.52.315 1.13-.36 1.914-1.204 2.37-1.844.82-1.15 1.909-1.01 2.339-.895.42.11.87.15 1.335.1 1.075-.105 1.825-.54 2.235-1.29.524-.965.42-2.41-.285-3.77-.42-.815-.495-1.54-.22-2.16.275-.625.93-1.044 1.64-1.044h.16c1.514 0 2.52-.33 2.914-.96.445-.705.015-1.6.01-1.61-.01-.015-.015-.035-.02-.055-.625-2.72-.065-4.72 1.715-6.085-1.145.1-2.235.43-3.17.965-1.764 1.005-4.32 2.095-6.134.045-.345-.39-.57-.85-.73-1.205-.95-2.13-1.995-3.464-3.19-4.08-.45-.234-.975-.344-1.625-.344-.5.005-.944.085-1.31.245-1.394.6-2.554 1.965-3.549 4.184-.16.36-.39.82-.73 1.21-1.815 2.055-4.37.96-6.134-.04a7.777 7.777 0 0 0-3.175-.965c1.78 1.365 2.34 3.36 1.715 6.085a.244.244 0 0 1-.02.055c-.005.01-.435.905.01 1.61.41.645 1.465.97 3.055.955h.025c.704 0 1.364.414 1.64 1.044.27.62.194 1.345-.22 2.16-.7 1.36-.81 2.805-.286 3.775.41.75 1.16 1.185 2.23 1.29.465.045.915.01 1.335-.1a2.3 2.3 0 0 1 .59-.08Z"/><path d="M2.609 14.684a.247.247 0 0 1-.115-.03.243.243 0 0 1-.105-.33c.05-.1 1.285-2.435 3.52-2.69.13-.02.255.08.275.215a.243.243 0 0 1-.215.27c-1.98.225-3.13 2.405-3.14 2.425a.245.245 0 0 1-.22.14ZM7.433 19.553a.237.237 0 0 1-.125-.035.242.242 0 0 1-.09-.335c.185-.32 1.85-3.15 3.03-3.634.125-.05.27.01.32.135.05.125-.01.27-.135.32-.87.355-2.31 2.594-2.79 3.424a.234.234 0 0 1-.21.125ZM13.108 27.137a.246.246 0 0 1-.24-.2c-.4-2.214-.355-4.719.14-7.669a.245.245 0 0 1 .285-.2c.135.025.225.15.2.285-.485 2.89-.53 5.345-.14 7.5a.244.244 0 0 1-.2.284h-.045ZM20.737 25.688c-.08 0-.16-.04-.205-.11-1.145-1.72-2.01-3.75-2.65-6.205a.247.247 0 0 1 .175-.3c.13-.04.265.045.3.175.625 2.4 1.475 4.38 2.585 6.06a.243.243 0 0 1-.205.38ZM26.256 17.599c-.02 0-.04 0-.06-.01-1.45-.365-2.914-.965-4.464-1.84a.246.246 0 1 1 .24-.43c1.515.85 2.935 1.435 4.344 1.79.13.035.21.165.18.3a.245.245 0 0 1-.24.19ZM14.298 10.18c-.33 0-.615-.13-.84-.38-.13-.146-.22-.33-.265-.53-.295-1.405.465-2.47 1.29-2.87a.657.657 0 0 1 .815.195c.56.745.59 1.85.08 2.884a1.22 1.22 0 0 1-1.055.695c0 .005-.015.005-.025.005Zm.475-3.35a.2.2 0 0 0-.075.015c-.68.325-1.25 1.23-1.02 2.324.025.115.075.22.15.3.14.155.295.225.495.22.255-.005.5-.17.62-.42.42-.855.405-1.79-.035-2.374a.161.161 0 0 0-.135-.065ZM17.692 10.18h-.03c-.44-.01-.85-.286-1.05-.696-.504-1.035-.474-2.144.08-2.884.19-.25.53-.335.815-.195.825.395 1.585 1.465 1.29 2.87-.04.2-.135.384-.265.53-.225.25-.51.374-.84.374Zm-.47-3.35a.168.168 0 0 0-.135.065c-.44.585-.45 1.52-.035 2.374.12.25.365.415.62.42a.612.612 0 0 0 .495-.22.632.632 0 0 0 .15-.3c.23-1.094-.34-2-1.025-2.324a.16.16 0 0 0-.07-.015ZM18.497 14.644a.384.384 0 0 1-.18-.045c-1.38-.74-2.854-.75-4.504-.03a.39.39 0 0 1-.37-.03.361.361 0 0 1-.17-.32c.015-1.85.94-3.245 2.26-3.395.335-.04.7.03 1.074.2 1.1.51 1.845 1.535 2.265 3.135a.39.39 0 0 1-.375.485Zm-2.774-3.34c-.046 0-.09 0-.13.005-1.025.115-1.76 1.235-1.82 2.74 1.63-.675 3.16-.675 4.56-.005-.39-1.315-1.026-2.16-1.93-2.58-.24-.105-.47-.16-.68-.16Z"/></svg>