<svg xmlns="http://www.w3.org/2000/svg" viewBox="0 0 32 32" id="imdb"><path d="M32 16c0 10.342-3.39 14.924-12.29 15.826-1.234.12-2.472.178-3.71.174h-1.585C3.927 31.578 0 27.142 0 16 0 4.364 4.364 0 16 0s16 4.364 16 16Z"/><path fill="currentColor" d="M5.5 12.135h2.171v8.356H5.5v-8.356Zm0 0h2.171v8.356H5.5v-8.356Zm6.275 3.848c-.188-1.28-.285-1.984-.285-2.126a42.926 42.926 0 0 0-.262-1.782H8.39v8.356h1.902v-5.518l.801 5.518h1.356l.748-5.638v5.638H15.1v-8.356h-2.823l-.501 3.909Zm0 0c-.188-1.28-.285-1.984-.285-2.126a42.926 42.926 0 0 0-.262-1.782H8.39v8.356h1.902v-5.518l.801 5.518h1.356l.748-5.638v5.638H15.1v-8.356h-2.823l-.501 3.909Zm6.918-2.171c.033.248.046.499.038.749v3.242c.026.345-.01.693-.105 1.026-.075.12-.27.187-.577.187v-5.511a1.01 1.01 0 0 1 .48.075.33.33 0 0 1 .164.232Zm.981 6.537c.238-.047.461-.15.652-.3a1.07 1.07 0 0 0 .367-.591c.1-.493.14-.996.12-1.498v-2.942a11.08 11.08 0 0 0-.083-1.588 1.498 1.498 0 0 0-1.205-1.205 8.83 8.83 0 0 0-2.03-.15h-1.617v8.356h2.628c.391.001.782-.026 1.168-.082Zm-.98-6.537c.032.248.045.499.037.749v3.242c.026.345-.01.693-.105 1.026-.075.12-.27.187-.577.187v-5.511a1.01 1.01 0 0 1 .48.075.33.33 0 0 1 .164.232Zm.98 6.537c.238-.047.461-.15.652-.3a1.07 1.07 0 0 0 .367-.591c.1-.493.14-.996.12-1.498v-2.942a11.08 11.08 0 0 0-.083-1.588 1.498 1.498 0 0 0-1.205-1.205 8.83 8.83 0 0 0-2.03-.15h-1.617v8.356h2.628c.391.001.782-.026 1.168-.082Zm4.635-1.25c-.037.104-.21.157-.344.157a.254.254 0 0 1-.262-.15 2.313 2.313 0 0 1-.06-.704v-2.209a2.638 2.638 0 0 1 .052-.696.24.24 0 0 1 .255-.143c.127 0 .307.053.352.158.058.227.081.462.067.696v2.142c.004.25-.016.501-.06.748Zm-2.763 1.257h1.925c.082-.314.127-.494.134-.531a1.587 1.587 0 0 0 1.363.644c.318.007.63-.088.891-.27.227-.15.394-.376.472-.636.081-.369.116-.746.105-1.123v-2.344c.019-.33.019-.66 0-.989a1.079 1.079 0 0 0-.681-.846 2.059 2.059 0 0 0-1.498.015 1.63 1.63 0 0 0-.577.45V12h-2.096l-.038 8.356Zm2.763-1.258c-.037.105-.21.158-.344.158a.254.254 0 0 1-.262-.15 2.313 2.313 0 0 1-.06-.704v-2.209a2.638 2.638 0 0 1 .052-.696.24.24 0 0 1 .255-.143c.127 0 .307.053.352.158.058.227.081.462.067.696v2.142c.004.25-.016.501-.06.748Zm-2.763 1.258h1.925c.082-.314.127-.494.134-.531a1.587 1.587 0 0 0 1.363.644c.318.007.63-.088.891-.27.227-.15.394-.376.472-.636.081-.369.116-.746.105-1.123v-2.344c.019-.33.019-.66 0-.989a1.079 1.079 0 0 0-.681-.846 2.059 2.059 0 0 0-1.498.015 1.63 1.63 0 0 0-.577.45V12h-2.096l-.038 8.356Z"/></svg>