<svg xmlns="http://www.w3.org/2000/svg" viewBox="0 0 32 32" id="instagram"><path  d="M0 16C0 4.364 4.364 0 16 0s16 4.364 16 16-4.364 16-16 16S0 27.636 0 16Z"/><path fill="currentColor" d="M15.995 21.056h-.275a5.171 5.171 0 0 1-4.836-4.836 5.095 5.095 0 0 1 1.393-3.794 5.17 5.17 0 0 1 3.718-1.53 5.113 5.113 0 0 1 4.239 2.249c.563.825.867 1.8.872 2.8a5.172 5.172 0 0 1-1.53 3.718 5.11 5.11 0 0 1-3.581 1.393Zm0-8.263a3.166 3.166 0 0 0-3.06 3.32 3.137 3.137 0 0 0 2.968 2.969 3.166 3.166 0 0 0 3.244-3.137 3.26 3.26 0 0 0-.535-1.76 3.183 3.183 0 0 0-2.617-1.392ZM22.758 10.406a1.224 1.224 0 1 1-1.224-1.224c.164.004.325.04.475.107a1.224 1.224 0 0 1 .75 1.117Z"/><path fill="currentColor" d="M20.02 26.105h-8.05a6.12 6.12 0 0 1-6.12-6.12V11.92A6.12 6.12 0 0 1 11.97 5.8h8.05a6.12 6.12 0 0 1 6.12 6.12v8.05a6.12 6.12 0 0 1-6.12 6.135ZM11.97 7.743a4.193 4.193 0 0 0-4.177 4.178v8.048a4.193 4.193 0 0 0 4.178 4.178h8.048a4.193 4.193 0 0 0 4.178-4.178v-8.048a4.193 4.193 0 0 0-4.178-4.178h-8.048Z"/></svg>