<svg xmlns="http://www.w3.org/2000/svg" viewBox="0 0 32 32" id="kid"><path d="M28.943 13.143h-.057c-1.223-3.388-4.177-6.188-8.115-7.48a3.726 3.726 0 0 0-3.148-2.097 3.48 3.48 0 0 0-3.257 1.429c-5.4.571-9.715 3.823-11.257 8.148h-.052C1.371 13.143 0 14.721 0 16.658s1.371 3.514 3.057 3.514h.04c1.714 4.789 6.857 8.28 12.903 8.28s11.194-3.491 12.903-8.28h.04c1.714 0 3.057-1.577 3.057-3.514 0-1.937-1.371-3.515-3.057-3.515ZM17.514 4.71A2.566 2.566 0 0 1 19.8 6.303c.07.216.104.442.103.669 0 1.143-.337 1.943-1.029 2.406-1.44.965-4.205.371-5.823-.149a9.388 9.388 0 0 0 1.995-3.074c.039-.12.088-.237.148-.349A2.286 2.286 0 0 1 17.52 4.71h-.006ZM1.143 16.658A2.286 2.286 0 0 1 2.76 14.32c-.178.772-.27 1.561-.274 2.354.002.78.092 1.559.268 2.32a2.286 2.286 0 0 1-1.611-2.337ZM16 27.303c-6.823 0-12.371-4.771-12.371-10.628 0-5.2 4.308-9.56 10.165-10.457l-.051.103a.708.708 0 0 1-.057.114c-.029.063-.063.12-.092.177l-.063.109-.108.182-.057.092-.155.228v.035l-.188.263-.034.04-.155.205-.063.069a1.81 1.81 0 0 1-.125.154l-.069.086-.114.126-.074.085-.098.109-.068.074-.092.097-.062.069a1.05 1.05 0 0 0-.08.08l-.058.057-.062.063-.052.046-.051.051-.029.029-.04.034a.571.571 0 0 0-.177.52.571.571 0 0 0 .343.434l.074.029h.04l.143.057h.034l.252.091h.068l.257.086.086.029.383.12h.074l.366.097.126.034.48.12.491.097.12.149.463.074h.091c.178.029.36.046.543.063h1.44l.246-.029.44-.074.206-.034c.147-.037.292-.083.434-.137l.2-.075a3.287 3.287 0 0 0 1.897-2.103v-.028c.048-.148.086-.299.114-.452v-.211c0-.069.035-.2.046-.309.012-.108 0-.182 0-.274v-.286c4.412 1.715 7.32 5.503 7.32 9.715.074 5.834-5.474 10.605-12.297 10.605Zm13.246-8.308a9.994 9.994 0 0 0 0-4.674 2.286 2.286 0 0 1 1.611 2.337 2.285 2.285 0 0 1-1.611 2.337Z"/><path d="M11.023 13.366a2.206 2.206 0 0 0-2.063 2.315.571.571 0 1 0 1.143 0 1.068 1.068 0 0 1 .92-1.172 1.068 1.068 0 0 1 .92 1.172.571.571 0 0 0 1.143 0 2.206 2.206 0 0 0-2.063-2.315ZM20.48 13.366a2.205 2.205 0 0 0-2.063 2.315.571.571 0 1 0 1.143 0 1.069 1.069 0 0 1 .92-1.172 1.068 1.068 0 0 1 .92 1.172.571.571 0 1 0 1.143 0 2.206 2.206 0 0 0-2.063-2.315ZM18.486 19.835a.571.571 0 0 0-.572.571 1.914 1.914 0 0 1-3.828 0 .571.571 0 1 0-1.143 0 3.057 3.057 0 1 0 6.114 0 .571.571 0 0 0-.571-.571Z"/></svg>