<svg xmlns="http://www.w3.org/2000/svg" viewBox="0 0 32 32" id="kids" fill="none"><g><path stroke="currentColor" stroke-linecap="round" stroke-linejoin="round" stroke-width="2" d="M16 31c8.284 0 15-6.716 15-15 0-8.284-6.716-15-15-15C7.716 1 1 7.716 1 16c0 8.284 6.716 15 15 15Z"/><path fill="currentColor" d="M10.375 17.875a1.875 1.875 0 1 0 0-3.75 1.875 1.875 0 0 0 0 3.75ZM21.625 17.875a1.875 1.875 0 1 0 0-3.75 1.875 1.875 0 0 0 0 3.75Z"/><path stroke="currentColor" stroke-linecap="round" stroke-linejoin="round" stroke-width="2" d="M20.14 22.25a7.484 7.484 0 0 1-8.28 0M16 1c-2.5 3.125-2.5 6.25-2.5 6.25a2.5 2.5 0 0 0 5 0"/></g></svg>