<svg xmlns="http://www.w3.org/2000/svg" viewBox="0 0 32 32"><path d="M31.946 22.176a16.146 16.146 0 0 1-5.286 6.569 16.953 16.953 0 0 1-7.98 3.132 17.162 17.162 0 0 1-8.532-1.146 16.556 16.556 0 0 1-6.793-5.115 15.756 15.756 0 0 1-3.23-7.712c-.357-2.8.057-5.641 1.199-8.238a16.151 16.151 0 0 1 5.308-6.552 16.958 16.958 0 0 1 7.99-3.107 1 1 0 0 1 .583.109c.178.094.32.24.408.416a.891.891 0 0 1-.175 1.069 12.098 12.098 0 0 0-2.77 3.998 11.753 11.753 0 0 0-.94 4.723 12 12 0 0 0 1.707 6.06 12.544 12.544 0 0 0 4.577 4.462 13.102 13.102 0 0 0 6.26 1.704c2.203.036 4.379-.48 6.315-1.497a1.042 1.042 0 0 1 1.126.131.943.943 0 0 1 .233.994Z"/></svg>