<svg xmlns="http://www.w3.org/2000/svg" viewBox="0 0 32 32" id="mystery"><g clip-path="url(#a)"><path d="M6.39 10.505h-.147a1.548 1.548 0 0 1-.841-.387 7.81 7.81 0 0 0-2.457-1.2 1.483 1.483 0 0 1-1.001-.534 1.107 1.107 0 0 1-.16-.854C1.85 7.143 2.959 1.499 7.257.138a2.845 2.845 0 0 1 3.604 1.908c.187.64.935 4.003-3.604 8.139-.242.207-.55.32-.868.32ZM3.131 7.57c1.2.303 2.316.868 3.27 1.654C10.409 5.568 9.674 2.726 9.58 2.42a1.534 1.534 0 0 0-1.922-1.027C4.454 2.419 3.346 6.649 3.132 7.57ZM2.878 16.322a2.671 2.671 0 0 1-1.121-.267 3.11 3.11 0 0 1-1.709-2.054 5.962 5.962 0 0 1 .975-4.096l.307-.44 4.966 1.92-.094.601c0 .32-.587 3.229-2.269 4.123a2.31 2.31 0 0 1-1.055.213Zm-1-5.217a4.001 4.001 0 0 0-.535 2.575 1.828 1.828 0 0 0 1.001 1.175 1.041 1.041 0 0 0 .962 0 4.59 4.59 0 0 0 1.468-2.669l-2.897-1.08ZM13.852 26.41a1.55 1.55 0 0 1-.921-.36 7.639 7.639 0 0 0-2.577-1.002 1.335 1.335 0 0 1-1.335-1.334c-.03-1.106.068-2.212.294-3.295l-.04-.187.307-.32.48.453v-.654h.855l-.214.828a12.283 12.283 0 0 0-.307 3.162 8.906 8.906 0 0 1 3.364 1.334c.454-.664.843-1.37 1.162-2.108l1.228.534a13.939 13.939 0 0 1-1.428 2.521 1.054 1.054 0 0 1-.748.454l-.12-.027ZM9.713 32a3.473 3.473 0 0 1-1.188-.227 2.377 2.377 0 0 1-1.522-1.601c-.494-1.855 1.335-4.216 1.496-4.47l.333-.427 4.78 2.335-.12.52a5.99 5.99 0 0 1-2.337 3.496c-.442.242-.938.37-1.442.374Zm-.44-5.044a4.442 4.442 0 0 0-.948 2.87 1.04 1.04 0 0 0 .694.706 1.79 1.79 0 0 0 1.509-.08 4.11 4.11 0 0 0 1.535-2.121l-2.79-1.375Z"/><path d="M15.854 23.848a8.012 8.012 0 0 1-8.01-8.006 8.012 8.012 0 0 1 16.02 0 8.07 8.07 0 0 1-1.415 4.55 8.18 8.18 0 0 1-2.07 2.055 6 6 0 0 1-.894.52 7.694 7.694 0 0 1-3.63.88Zm0-14.677a6.678 6.678 0 0 0-6.166 4.118 6.669 6.669 0 0 0 3.612 8.717c.81.335 1.678.507 2.554.507a6.677 6.677 0 0 0 3.044-.747c.255-.123.5-.266.734-.427a7.033 7.033 0 0 0 1.722-1.721 6.669 6.669 0 0 0 1.175-3.79 6.668 6.668 0 0 0-4.646-6.35 6.517 6.517 0 0 0-2.029-.32v.013Z"/><path d="M11.943 20.378a.667.667 0 0 1-.467-.2 6.137 6.137 0 0 1 0-8.686.67.67 0 0 1 .947.948 4.788 4.788 0 0 0 0 6.791.68.68 0 0 1 0 .947c-.127.128-.3.2-.48.2ZM23.877 26.663l-4.912-4.897.654-.453a6.86 6.86 0 0 0 1.735-1.722l.454-.654 4.886 4.884-2.817 2.842Zm-2.87-4.737 2.87 2.856.935-.948-2.844-2.855a9.198 9.198 0 0 1-.96.974v-.027Z"/><path d="M29.057 32a1.95 1.95 0 0 1-1.415-.587l-3.778-3.763a2.014 2.014 0 0 1 0-2.842l.948-.934a1.99 1.99 0 0 1 2.83 0l3.778 3.776a2.014 2.014 0 0 1 0 2.829l-.948.934a1.95 1.95 0 0 1-1.415.587Zm-2.83-7.392a.668.668 0 0 0-.467.187l-.948.947a.653.653 0 0 0-.148.734c.035.08.085.153.148.213l3.778 3.776c.125.121.293.188.467.187a.641.641 0 0 0 .467-.187l.948-.947a.666.666 0 0 0 0-.947l-3.778-3.776a.668.668 0 0 0-.467-.187Z"/></g><defs><clipPath id="a"><path d="M0 0h32v32H0z"/></clipPath></defs></svg>