<svg xmlns="http://www.w3.org/2000/svg" viewBox="0 0 32 32" id="politics" fill="none"><g fill="currentColor"><path d="M26.4 12.81h-1.6a.8.8 0 1 0 0 1.6h1.6a.8.8 0 0 0 0-1.6Z"/><path d="M29.6 3.215h-2.864L23.76.257a.576.576 0 0 0-.256-.24.688.688 0 0 0-.304 0H8.8a.688.688 0 0 0-.304 0 .576.576 0 0 0-.256.176L5.264 3.215H2.4a2.4 2.4 0 0 0-2.4 2.4v20.788a2.398 2.398 0 0 0 2.4 2.399h10.4l2.56 2.926a.816.816 0 0 0 1.216 0l2.624-2.926h10.4a2.4 2.4 0 0 0 2.4-2.399V5.614a2.398 2.398 0 0 0-2.4-2.399ZM16.464 9.612h-.928l-2.4-2.399.8-.8h4.128l.8.8-2.4 2.399Zm1.6-4.798h-4.128l-3.2-3.198h10.528l-3.2 3.198Zm1.472.8L23.2 1.952l2.064 2.063L21.6 7.677l-2.064-2.063ZM8.8 1.952l3.664 3.662L10.4 7.677 6.736 4.015 8.8 1.952Zm-6.4 25.25a.8.8 0 0 1-.8-.799V5.614a.8.8 0 0 1 .8-.8h2.864L9.84 9.372a.768.768 0 0 0 1.12 0L12 8.35l2.288 2.286L9.6 24.548a.815.815 0 0 0 .144.784l1.6 1.87H2.4ZM16 29.986l-4.704-5.357 4.48-13.417h.448l4.48 13.417L16 29.985Zm14.4-3.582a.8.8 0 0 1-.8.8h-9.04l1.6-1.871a.815.815 0 0 0 .144-.784l-4.64-13.913L20 8.35l1.04 1.023a.768.768 0 0 0 1.12 0l4.576-4.558H29.6a.8.8 0 0 1 .8.8v20.79Z"/></g></svg>