<svg xmlns="http://www.w3.org/2000/svg" viewBox="0 0 32 32" id="sci-fi" fill="none"><g fill="currentColor"><path d="M24.219 7.9a3.024 3.024 0 0 0-2.147-.885c-.81 0-1.573.314-2.147.885-.573.57-.89 1.33-.89 2.136 0 .807.317 1.566.89 2.137.573.57 1.336.884 2.147.885.81 0 1.573-.315 2.147-.885.573-.571.89-1.33.89-2.137 0-.807-.317-1.565-.89-2.136Zm-1.208 3.07c-.25.25-.584.388-.94.388a1.323 1.323 0 1 1 0-2.643 1.323 1.323 0 0 1 .94 2.256ZM.854 26.193a.853.853 0 0 1-.604-.249.847.847 0 0 1 0-1.201l4.938-4.914a.857.857 0 0 1 1.208 0 .847.847 0 0 1 0 1.202l-4.938 4.913a.853.853 0 0 1-.604.25ZM1.958 30.901a.853.853 0 0 1-.604-.248.847.847 0 0 1 0-1.202l5.147-5.122a.857.857 0 0 1 1.208 0 .847.847 0 0 1 0 1.202l-5.147 5.122a.854.854 0 0 1-.604.248ZM6.69 32a.853.853 0 0 1-.604-.249.847.847 0 0 1 0-1.202l4.938-4.913a.857.857 0 0 1 1.207 0 .847.847 0 0 1 0 1.201l-4.938 4.914A.853.853 0 0 1 6.69 32Z"/><path d="M31.75.25a.857.857 0 0 0-.74-.24c-.099.017-2.466.404-5.691 1.63-1.892.72-3.69 1.58-5.344 2.56-2.03 1.203-3.848 2.59-5.405 4.122l-6.45 1.25a.856.856 0 0 0-.439.231L1.838 15.6a.847.847 0 0 0-.151 1 .855.855 0 0 0 .917.436l6.59-1.277c-.428.838-.83 1.707-1.202 2.609a.847.847 0 0 0 .186.924l1.614 1.606-1.5 1.493a.847.847 0 0 0 0 1.201.853.853 0 0 0 1.208 0L11 22.1l1.614 1.607a.857.857 0 0 0 .929.185c.906-.371 1.78-.77 2.621-1.197l-1.283 6.558a.849.849 0 0 0 .838 1.012c.222 0 .441-.086.605-.25l5.824-5.814a.85.85 0 0 0 .234-.438l1.255-6.417c1.54-1.55 2.933-3.358 4.142-5.379a34.406 34.406 0 0 0 2.573-5.317c1.232-3.21 1.621-5.565 1.637-5.664a.848.848 0 0 0-.24-.736ZM5.029 14.833l3.674-3.644 3.952-.766a29.034 29.034 0 0 0-2.382 3.394l-5.244 1.016Zm15.726 8.35-3.662 3.655 1.02-5.218a29.153 29.153 0 0 0 3.411-2.371l-.77 3.933ZM28.74 6.082c-1.079 2.798-3.067 6.832-6.413 10.162-1.54 1.533-3.334 2.896-5.36 4.075a.85.85 0 0 0-.104.062 32.418 32.418 0 0 1-3.448 1.718l-1.208-1.203 2.439-2.427a.847.847 0 0 0 0-1.202.857.857 0 0 0-1.208 0L11 19.695l-1.208-1.202a32.169 32.169 0 0 1 1.727-3.432.847.847 0 0 0 .061-.103c1.186-2.015 2.555-3.8 4.096-5.334 3.346-3.33 7.4-5.308 10.212-6.38a34.07 34.07 0 0 1 4.152-1.292 33.673 33.673 0 0 1-1.299 4.131Z"/></g></svg>