<svg xmlns="http://www.w3.org/2000/svg" viewBox="0 0 32 32"><path d="M16 24a8 8 0 1 0 0-16 8 8 0 0 0 0 16ZM30.4 17.6h-1.6a1.6 1.6 0 0 1 0-3.2h1.6a1.6 1.6 0 0 1 0 3.2ZM3.2 17.6H1.6a1.6 1.6 0 0 1 0-3.2h1.6a1.6 1.6 0 0 1 0 3.2ZM25.056 8.544A1.6 1.6 0 0 1 24 8.08a1.6 1.6 0 0 1 0-2.256l1.136-1.136a1.6 1.6 0 1 1 2.256 2.256L26.256 8.08a1.6 1.6 0 0 1-1.2.464ZM5.824 27.776a1.599 1.599 0 0 1-1.136-.464 1.6 1.6 0 0 1 0-2.256L5.824 24a1.6 1.6 0 0 1 2.256 2.256l-1.136 1.136a1.6 1.6 0 0 1-1.12.384ZM16 4.8a1.6 1.6 0 0 1-1.6-1.6V1.6a1.6 1.6 0 0 1 3.2 0v1.6A1.6 1.6 0 0 1 16 4.8ZM16 32a1.6 1.6 0 0 1-1.6-1.6v-1.6a1.6 1.6 0 0 1 3.2 0v1.6A1.6 1.6 0 0 1 16 32ZM6.944 8.544a1.6 1.6 0 0 1-1.12-.464L4.688 6.944a1.6 1.6 0 0 1 2.256-2.256L8.08 5.824a1.6 1.6 0 0 1 0 2.256 1.6 1.6 0 0 1-1.136.464ZM26.176 27.776a1.6 1.6 0 0 1-1.12-.464L24 26.176A1.6 1.6 0 0 1 26.176 24l1.136 1.136a1.6 1.6 0 0 1 0 2.256 1.6 1.6 0 0 1-1.136.384Z"/></svg>