<svg xmlns="http://www.w3.org/2000/svg" viewBox="0 0 32 32" id="thriller"><g clip-path="url(#a)"><path  d="M31.9 26.7c-.45-.75-.95-1.45-1.5-2.2l-.05-.05c-.3-.4-.55-.75-.85-1.15-1.65-2.05-3.7-4.2-6-6.15-1.55-1.35-2.55-2-3.45-2.6-1-.7-1.75-1.2-2.95-2.45-1.2-1.2-2.25-2.55-3.15-4l1-1c.2-.2.2-.55 0-.8l-3.5-3.5c-.2-.2-.55-.2-.8 0L7.55 6 .4 8.3c-.15.05-.25.15-.35.3-.05.1-.05.3 0 .4.8 1.9 1.95 3.65 3.4 5.15C5 15.7 6.75 16.9 8.8 17.75c.05.05.15.05.2.05.1 0 .15 0 .25-.05.15-.05.25-.2.3-.35l2-6.2c.9 1.3 1.85 2.5 2.95 3.65 1.8 1.95 3.4 3.2 4.85 4.3 1.65 1.3 3.05 2.4 4.6 4.35 1.25 1.6 2.3 3.4 3.05 5.45.05.2.25.3.45.35.2 0 .4.05.6.05.5 0 .95-.05 1.45-.2 1.3-.4 2.1-1.3 2.5-1.8.05-.25.05-.45-.1-.65ZM8.65 16.5C7 15.75 5.5 14.7 4.2 13.35 3 12.1 2 10.7 1.25 9.1L8 7c.1-.05.15-.05.2-.15L11.1 4l2.7 2.7-2.9 2.9a.38.38 0 0 0-.1.2l-2.15 6.7Zm6.6-2.35c-1.2-1.25-2.25-2.65-3.2-4.1L13.2 8.9c.95 1.4 2 2.75 3.15 3.95 1.25 1.3 2.1 1.85 3.15 2.6.4.25.8.55 1.3.9l-1.45 1.45c-1.3-.95-2.6-2.05-4.1-3.65Zm4.95 4.35 1.45-1.45c.35.3.75.6 1.15.95 2.2 1.9 4.25 3.95 5.85 6 .2.25.4.5.6.8-.3.3-.65.55-1.05.75-.45.25-.9.45-1.4.55-.6-1.15-1.3-2.2-2.05-3.2-1.55-2-3-3.2-4.55-4.4Zm8.9 9.55c-.4.15-.8.2-1.25.15-.15-.4-.35-.8-.55-1.2.5-.15.95-.35 1.45-.6.4-.25.8-.5 1.15-.8.3.45.6.85.9 1.3-.35.45-.9.9-1.7 1.15Z"/></g><defs><clipPath id="a"><path  d="M0 0h32v32H0z"/></clipPath></defs></svg>