<svg xmlns="http://www.w3.org/2000/svg" viewBox="0 0 32 32" id="tv"><g><path d="M28.565 32H3.435C1.537 32 0 30.423 0 28.474v-13.5c0-1.949 1.537-3.526 3.435-3.526h25.13c1.898 0 3.435 1.577 3.435 3.525v13.501C32 30.376 30.463 32 28.565 32ZM3.435 12.793c-1.13 0-2.08.974-2.08 2.134v13.5c0 1.16.95 2.135 2.08 2.135h25.13c1.13 0 2.08-.975 2.08-2.134V14.973c0-1.206-.95-2.134-2.08-2.134H3.435v-.046Z"/><path d="M21.74 29.68H4.655c-1.31 0-2.395-1.113-2.395-2.459V16.365c0-1.345 1.085-2.458 2.395-2.458h17.13c1.311 0 2.396 1.113 2.396 2.458v10.903c-.045 1.345-1.13 2.412-2.44 2.412ZM4.655 15.066a1.28 1.28 0 0 0-1.265 1.3v10.902c0 .696.542 1.299 1.265 1.299h17.13a1.28 1.28 0 0 0 1.266-1.3V16.366c0-.696-.542-1.299-1.266-1.299H4.655ZM27.345 18.175c.649 0 1.175-.54 1.175-1.207 0-.666-.526-1.206-1.175-1.206-.65 0-1.175.54-1.175 1.206 0 .667.526 1.207 1.175 1.207ZM27.345 27.453c.649 0 1.175-.54 1.175-1.206 0-.666-.526-1.206-1.175-1.206-.65 0-1.175.54-1.175 1.206 0 .666.526 1.206 1.175 1.206ZM27.345 22.814c.649 0 1.175-.54 1.175-1.206 0-.666-.526-1.206-1.175-1.206-.65 0-1.175.54-1.175 1.206 0 .666.526 1.206 1.175 1.206ZM15.141 12.468c-.135 0-.316-.046-.406-.185L4.158 1.009a.6.6 0 0 1 0-.835.563.563 0 0 1 .814 0l10.17 10.856 7.14-6.959a.562.562 0 0 1 .814 0 .599.599 0 0 1 0 .835l-7.593 7.377a.408.408 0 0 1-.362.185Z"/></g></svg>