<svg xmlns="http://www.w3.org/2000/svg" viewBox="0 0 32 32" id="twitter"><path d="M0 16C0 4.364 4.364 0 16 0s16 4.364 16 16-4.364 16-16 16S0 27.636 0 16Z"/><path fill="currentColor" d="M26.34 9.54a9.167 9.167 0 0 1-2.46.672 4.34 4.34 0 0 0 1.88-2.353 9.03 9.03 0 0 1-2.72 1.04 4.308 4.308 0 0 0-6.112-.245 4.202 4.202 0 0 0-1.268 4.11 12.224 12.224 0 0 1-8.77-4.446A4.232 4.232 0 0 0 8.25 14a4.11 4.11 0 0 1-1.94-.534 4.247 4.247 0 0 0 3.468 4.201c-.372.11-.758.167-1.146.168-.264.023-.53.023-.794 0a4.278 4.278 0 0 0 4.003 2.934 8.74 8.74 0 0 1-5.302 1.833H5.5a12.223 12.223 0 0 0 6.57 1.91 12.07 12.07 0 0 0 12.223-11.887v-.764A8.677 8.677 0 0 0 26.34 9.54Z"/></svg>