<svg xmlns="http://www.w3.org/2000/svg" viewBox="0 0 32 32" id="ufo"><path d="M25.53 12.602c-1.368-3.25-5.137-5.522-9.533-5.522s-8.165 2.28-9.534 5.522C2.297 13.605 0 15.168 0 17.024c0 2.605 4.326 3.966 7.013 4.558 2.617 2.22 5.804 3.334 8.99 3.334 3.187 0 6.367-1.113 8.99-3.334C27.674 20.99 32 19.63 32 17.024c-.006-1.856-2.303-3.419-6.47-4.422Zm-9.533-4.22c4.293 0 7.896 2.384 8.664 5.633a34.383 34.383 0 0 1-17.322 0c.762-3.25 4.37-5.633 8.658-5.633ZM10.078 22.11c1.868.24 3.865.364 5.919.364 2.054 0 4.057-.123 5.919-.364a12.467 12.467 0 0 1-11.838 0Zm14.5-1.772c-2.528.547-5.497.834-8.581.834-3.084 0-6.053-.287-8.574-.834-4.243-.911-6.143-2.318-6.143-3.314 0-.801 1.273-2.019 4.754-2.97-.02.118-.051.228-.064.345a.65.65 0 0 0 .467.717 35.61 35.61 0 0 0 19.132 0 .658.658 0 0 0 .467-.716c-.012-.118-.044-.228-.064-.346 3.468.951 4.742 2.169 4.742 2.97 0 .99-1.894 2.403-6.136 3.314Z"/><path d="M4.249 16.568a.663.663 0 0 0 0 .918.639.639 0 0 0 .454.189c.173 0 .34-.065.454-.189a.65.65 0 0 0 .186-.462.635.635 0 0 0-.186-.456.649.649 0 0 0-.908 0ZM10.807 18.209a.929.929 0 0 0-.21-.143.645.645 0 0 0-.698.143.691.691 0 0 0-.186.462c0 .17.07.339.186.463a.667.667 0 0 0 .454.189c.083 0 .167-.02.243-.053a.737.737 0 0 0 .211-.136.69.69 0 0 0 .186-.463c0-.084-.02-.169-.051-.247a.61.61 0 0 0-.135-.215ZM22.101 18.209a.774.774 0 0 0-.205-.143.645.645 0 0 0-.492 0 .932.932 0 0 0-.212.143.646.646 0 0 0-.134.208.72.72 0 0 0-.051.254c0 .085.02.17.051.248.032.078.077.15.134.215a.739.739 0 0 0 .212.136c.076.033.16.053.243.053a.667.667 0 0 0 .454-.19.662.662 0 0 0 .186-.462.71.71 0 0 0-.045-.254.662.662 0 0 0-.14-.208ZM15.549 18.548a.636.636 0 0 0-.186.456.652.652 0 0 0 .186.462.617.617 0 0 0 .454.189.613.613 0 0 0 .448-.19.543.543 0 0 0 .14-.214.642.642 0 0 0-.14-.703.641.641 0 0 0-.902 0ZM27.886 16.776a.363.363 0 0 0-.058-.11.641.641 0 0 0-.077-.098c-.032-.033-.064-.059-.096-.085l-.115-.058-.115-.04a.642.642 0 0 0-.755.515.812.812 0 0 0-.013.124c0 .084.02.17.051.254.032.078.077.15.135.208a.639.639 0 0 0 .454.189c.045 0 .083 0 .128-.013a.753.753 0 0 0 .115-.033c.038-.02.077-.039.115-.065a.507.507 0 0 0 .096-.078.646.646 0 0 0 .135-.208.72.72 0 0 0 .05-.254.812.812 0 0 0-.012-.124.397.397 0 0 0-.038-.124Z"/></svg>