<svg xmlns="http://www.w3.org/2000/svg" viewBox='0 0 32 32' id='war'><path fill-rule="evenodd" d="M10.772 23.252a.5.5 0 0 0-.106.01l-4.004.748a.502.502 0 0 0-.394.613l.135.543c.22.876.22 1.793 0 2.668l-.886 3.54.97.243.889-3.54a6.483 6.483 0 0 0 0-3.153l-.008-.029 3.02-.564.386 1.54a.498.498 0 0 0 .078.17l1.252 1.749a.5.5 0 0 0 .407.209h6.76a.99.99 0 0 0 .803-.412l.056-.078a9.987 9.987 0 0 0 1.567-3.385l-.053.207 3.02.566-.007.027a6.482 6.482 0 0 0 0 3.152l.888 3.541.972-.242-.888-3.54a5.49 5.49 0 0 1 0-2.669l.137-.543a.498.498 0 0 0-.395-.613l-4.005-.748a.501.501 0 0 0-.579.37l-.062.25a8.978 8.978 0 0 1-1.409 3.044l-.052.072h-6.495l-1.047-1.461-.477-1.906a.5.5 0 0 0-.473-.379ZM8.88 12.5a.5.5 0 0 0-.456.314 2.263 2.263 0 0 0-.16 1.121l.092.813c.072.646.357 1.327 1 1.709l.26.154c.22.132.396.325.503.555l1.479 3.156A4.674 4.674 0 0 0 15.834 23h.332a4.675 4.675 0 0 0 4.236-2.678l1.479-3.156c.107-.23.282-.423.503-.555l.26-.154c.643-.382.928-1.063 1-1.709l.092-.813a2.252 2.252 0 0 0-.16-1.12.501.501 0 0 0-.924.386c.081.194.114.406.09.621l-.092.815c-.05.451-.204.774-.517.96l-.258.155a2.277 2.277 0 0 0-.9.99l-1.48 3.156A3.67 3.67 0 0 1 16.167 22h-.332a3.67 3.67 0 0 1-3.33-2.102l-1.478-3.156a2.277 2.277 0 0 0-.9-.99l-.258-.154c-.314-.187-.467-.51-.518-.961l-.092-.815a1.26 1.26 0 0 1 .09-.623.5.5 0 0 0-.469-.699Z" clip-rule="evenodd"/><path d="M15.996 3.417a.5.5 0 0 0-.479.308l-.433 1.043-1.145.141a.5.5 0 0 0-.265.875l.855.736-.22 1.135a.5.5 0 0 0 .751.522l.961-.588 1.008.56a.5.5 0 0 0 .73-.55l-.261-1.102.843-.787a.5.5 0 0 0-.3-.864l-1.123-.092-.487-1.048a.5.5 0 0 0-.435-.29Zm.008 1.74.13.283a.5.5 0 0 0 .413.287l.285.023-.229.213a.5.5 0 0 0-.146.483l.066.277-.27-.15a.5.5 0 0 0-.503.01l-.242.148.058-.305a.5.5 0 0 0-.164-.476l-.217-.188.309-.037a.5.5 0 0 0 .4-.304l.11-.264Z"/><path fill-rule="evenodd" d="M16 0c-4.136 0-7.5 3.364-7.5 7.5v3h1v-3C9.5 3.904 12.404 1 16 1s6.5 2.904 6.5 6.5v3h1v-3C23.5 3.364 20.136 0 16 0Z" clip-rule="evenodd"/><path d="M8.353 10a.826.826 0 0 0-.654.35c-.135.186-.2.406-.2.638v1.026c0 .232.065.452.2.638a.825.825 0 0 0 .654.348h15.293a.828.828 0 0 0 .656-.348c.136-.186.198-.406.198-.638v-1.026c0-.232-.063-.452-.198-.638a.83.83 0 0 0-.656-.35H8.353Zm.147 1h15v1h-15v-1Z"/><path fill-rule="evenodd" d="m20.244 20.252-.994.117.293 2.508c.062.535.286 1.02.623 1.398.168.19.365.35.586.477l.498-.867a1.365 1.365 0 0 1-.338-.276 1.545 1.545 0 0 1-.375-.85l-.293-2.507Z" clip-rule="evenodd"/><path fill-rule="evenodd" d="M6.848 24.5c-.362.064-.722.127-1.085.186h-.002a3.508 3.508 0 0 0-2.822 2.377l-1.414 4.28A.501.501 0 0 0 2 32h28a.5.5 0 0 0 .475-.657l-1.402-4.245a3.508 3.508 0 0 0-2.885-2.387h.021l-1.101-.192-.172.986 1.103.194h.024a2.5 2.5 0 0 1 2.06 1.706l1.186 3.588H2.69l1.197-3.623c.3-.91 1.08-1.565 2.018-1.7h.01c.37-.06.738-.124 1.107-.19l-.175-.98Z" clip-rule="evenodd"/><path fill-rule="evenodd" d="m11.757 20.186-.293 2.507a1.545 1.545 0 0 1-.375.85 1.37 1.37 0 0 1-.34.275l.5.868c.22-.127.417-.288.586-.477.336-.378.558-.864.62-1.398l.295-2.508-.993-.117Z" clip-rule="evenodd"/></svg>