<svg xmlns="http://www.w3.org/2000/svg" viewBox="0 0 32 32" id='western'><path d="M4.556 23.792c1.113 0 2.474-.186 4.02-.557 2.166 1.732 4.764 2.66 7.424 2.66s5.258-.866 7.423-2.66c3.712.804 6.124.68 7.361-.433 1.423-1.299 1.609-2.784.495-4.083-.556-.68-1.422-1.113-2.35-1.299h-.062a4.567 4.567 0 0 0-1.3 0c-.865.124-1.731.31-2.66.371V16.74c0-2.846-.432-5.691-1.236-8.475-.186-.619-.557-1.175-1.114-1.546C22 6.347 21.382 6.1 20.763 6.1c-1.175 0-2.289.68-2.784 1.794a1.483 1.483 0 0 1-1.36.866H15.38c-.618 0-1.175-.371-1.36-.866-.495-.99-1.609-1.732-2.784-1.732-.619 0-1.3.185-1.794.618-.495.372-.928.928-1.114 1.547-.866 2.784-1.237 5.63-1.237 8.475v1.051c-.866-.123-1.732-.247-2.66-.37a4.574 4.574 0 0 0-1.299 0h-.062c-.927.123-1.794.556-2.35 1.298-1.114 1.361-.928 2.846.495 4.083.68.619 1.794.928 3.34.928Zm4.825-1.485-4.268-3.526 2.598.371c5.505.68 11.134.68 16.64 0l2.598-.37-4.268 3.525c-3.897 3.155-9.465 3.155-13.3 0Zm20.97-2.784c.433.557.805 1.3-.37 2.413-.62.557-1.98.99-5.32.371l4.33-3.526c.556.062 1.051.31 1.36.742ZM9.505 8.698c.123-.371.37-.68.68-.928a1.68 1.68 0 0 1 1.052-.371c.68 0 1.36.433 1.608 1.052.433.99 1.423 1.608 2.536 1.608h1.238c1.113 0 2.103-.619 2.536-1.608.31-.619.928-1.052 1.67-1.052.371 0 .742.124 1.052.371.309.248.556.557.618.928a28.572 28.572 0 0 1 1.176 6.743 63.642 63.642 0 0 1-15.342 0 28.57 28.57 0 0 1 1.176-6.743Zm-1.237 8.104v-.124c2.536.31 5.134.433 7.732.433s5.134-.124 7.732-.433v1.299a64.154 64.154 0 0 1-15.403 0v-1.175h-.061Zm-6.62 2.721c.31-.433.805-.68 1.362-.804l4.33 3.526c-3.34.619-4.763.186-5.32-.37-1.237-1.052-.866-1.795-.371-2.352Z"/><path d="M10.928 12.78c.123 0 .309-.061.433-.185 1.422-1.299.68-3.216.618-3.278-.124-.31-.495-.433-.804-.31-.31.124-.495.495-.371.805 0 .061.433 1.175-.31 1.917a.662.662 0 0 0-.061.866c.123.062.309.186.495.186ZM21.073 12.78c.185 0 .309-.061.433-.185.247-.247.185-.618-.062-.866-.805-.742-.371-1.856-.31-1.917.124-.31 0-.68-.309-.805-.31-.123-.68 0-.804.31-.062.062-.804 1.98.618 3.278.124.124.31.186.434.186Z"/></svg>