<svg xmlns="http://www.w3.org/2000/svg" width="55" height="28" fill="none"><mask id="a" width="55" height="28" x="0" y="0" fill="#000" maskUnits="userSpaceOnUse"><path fill="#fff" d="M0 0h55v28H0z"/><path d="M23.211 5.11c0-.813-.66-1.473-1.473-1.473-.285 0-.549.085-.775.225a1.46 1.46 0 0 0 .137-.611 1.469 1.469 0 0 0-2.853-.5 1.463 1.463 0 0 0-1.65-.043 1.47 1.47 0 0 0 .024-.235 1.467 1.467 0 0 0-2.747-.727 1.456 1.456 0 0 0-.713-.19c-.813 0-1.473.659-1.473 1.473 0 .054.01.106.016.16a1.46 1.46 0 0 0-.654-.16c-.039 0-.075.008-.113.011a1.473 1.473 0 1 0-2.833-.567c0 .02.005.04.006.06a1.457 1.457 0 0 0-.391-.06c-.08 0-.158.011-.235.024l.002-.024a1.473 1.473 0 1 0-2.946 0c-.814 0-1.473.66-1.473 1.473 0 .083.01.161.024.24a1.47 1.47 0 0 0-.112 2.885l-.73.962 9.44 2.319 7.94-1.546 2.811-1.304-.143-1.028c.535-.22.914-.747.914-1.363Z"/><path d="M5.125 26.84a.642.642 0 0 1-.634-.537L1.206 6.578a.641.641 0 0 1 .634-.748h21.427a.642.642 0 0 1 .635.748l-3.285 19.725a.641.641 0 0 1-.634.538H5.125Z"/><path d="M23.267 5.989c.3 0 .527.268.478.564L20.46 26.277a.484.484 0 0 1-.478.405H5.125a.484.484 0 0 1-.477-.405L1.363 6.552a.484.484 0 0 1 .478-.564h21.426Zm0-.319H1.841a.801.801 0 0 0-.792.935l3.285 19.724a.8.8 0 0 0 .792.671h14.857a.8.8 0 0 0 .791-.67L24.06 6.603a.801.801 0 0 0-.792-.934Z"/><path d="M6.955 26.681h-2.24L1.27 5.99h3.224L6.955 26.68ZM11.434 26.681h-2.24L7.718 5.99h3.224l.492 20.692ZM15.914 26.681h-2.24l.492-20.692h3.224L15.914 26.68ZM20.393 26.681h-2.24L20.615 5.99h3.224L20.393 26.68Z"/><path d="M23.516 5.989c.17 0 .298.151.27.318l-3.355 20.146a.273.273 0 0 1-.27.229H4.947a.273.273 0 0 1-.27-.229L1.322 6.307a.273.273 0 0 1 .27-.318h21.924Zm0-.319H1.592a.591.591 0 0 0-.584.69l3.355 20.145a.59.59 0 0 0 .584.495H20.16a.59.59 0 0 0 .583-.495L24.1 6.36a.59.59 0 0 0-.584-.689ZM26.643 19v-.861l1.114-.192v-7.84l-1.114-.192v-.868h2.912L32.76 16.6h.04l3.104-7.554h3.001v.868l-1.114.191v7.841l1.114.192V19h-3.575v-.861l1.176-.192v-7.061l-.034-.007-3.234 7.766h-.895L29 10.893l-.034.006.048 4.164v2.884l1.203.192V19h-3.575ZM43.657 19l-2.324-8.982-.84-.103v-.868h3.226v.868l-1.032.157 1.298 5.476.301 1.278.041.007.397-1.278 2.003-6.508h1.182l2.024 6.508.39 1.353h.04l.356-1.353 1.285-5.483-1.114-.157v-.868h3.172v.868l-.787.103L51.047 19h-1.278l-2.16-6.89-.274-1.005h-.041l-.267 1.004L44.86 19h-1.203Z"/></mask><path fill="#E8E462" d="M23.211 5.11c0-.813-.66-1.473-1.473-1.473-.285 0-.549.085-.775.225a1.46 1.46 0 0 0 .137-.611 1.469 1.469 0 0 0-2.853-.5 1.463 1.463 0 0 0-1.65-.043 1.47 1.47 0 0 0 .024-.235 1.467 1.467 0 0 0-2.747-.727 1.456 1.456 0 0 0-.713-.19c-.813 0-1.473.659-1.473 1.473 0 .054.01.106.016.16a1.46 1.46 0 0 0-.654-.16c-.039 0-.075.008-.113.011a1.473 1.473 0 1 0-2.833-.567c0 .02.005.04.006.06a1.457 1.457 0 0 0-.391-.06c-.08 0-.158.011-.235.024l.002-.024a1.473 1.473 0 1 0-2.946 0c-.814 0-1.473.66-1.473 1.473 0 .083.01.161.024.24a1.47 1.47 0 0 0-.112 2.885l-.73.962 9.44 2.319 7.94-1.546 2.811-1.304-.143-1.028c.535-.22.914-.747.914-1.363Z"/><path fill="#EFEFEF" d="M5.125 26.84a.642.642 0 0 1-.634-.537L1.206 6.578a.641.641 0 0 1 .634-.748h21.427a.642.642 0 0 1 .635.748l-3.285 19.725a.641.641 0 0 1-.634.538H5.125Z"/><path fill="#191919" d="M23.267 5.989c.3 0 .527.268.478.564L20.46 26.277a.484.484 0 0 1-.478.405H5.125a.484.484 0 0 1-.477-.405L1.363 6.552a.484.484 0 0 1 .478-.564h21.426Zm0-.319H1.841a.801.801 0 0 0-.792.935l3.285 19.724a.8.8 0 0 0 .792.671h14.857a.8.8 0 0 0 .791-.67L24.06 6.603a.801.801 0 0 0-.792-.934Z"/><path fill="#CA3521" d="M6.955 26.681h-2.24L1.27 5.99h3.224L6.955 26.68ZM11.434 26.681h-2.24L7.718 5.99h3.224l.492 20.692ZM15.914 26.681h-2.24l.492-20.692h3.224L15.914 26.68ZM20.393 26.681h-2.24L20.615 5.99h3.224L20.393 26.68Z"/><path fill="#191919" d="M23.516 5.989c.17 0 .298.151.27.318l-3.355 20.146a.273.273 0 0 1-.27.229H4.947a.273.273 0 0 1-.27-.229L1.322 6.307a.273.273 0 0 1 .27-.318h21.924Zm0-.319H1.592a.591.591 0 0 0-.584.69l3.355 20.145a.59.59 0 0 0 .584.495H20.16a.59.59 0 0 0 .583-.495L24.1 6.36a.59.59 0 0 0-.584-.689Z"/><path fill="#CA3521" d="M26.643 19v-.861l1.114-.192v-7.84l-1.114-.192v-.868h2.912L32.76 16.6h.04l3.104-7.554h3.001v.868l-1.114.191v7.841l1.114.192V19h-3.575v-.861l1.176-.192v-7.061l-.034-.007-3.234 7.766h-.895L29 10.893l-.034.006.048 4.164v2.884l1.203.192V19h-3.575Z"/><path fill="#EFEFEF" d="m43.657 19-2.324-8.982-.84-.103v-.868h3.226v.868l-1.032.157 1.298 5.476.301 1.278.041.007.397-1.278 2.003-6.508h1.182l2.024 6.508.39 1.353h.04l.356-1.353 1.285-5.483-1.114-.157v-.868h3.172v.868l-.787.103L51.047 19h-1.278l-2.16-6.89-.274-1.005h-.041l-.267 1.004L44.86 19h-1.203Z"/><path stroke="#161A1D" stroke-width=".4" d="M23.211 5.11c0-.813-.66-1.473-1.473-1.473-.285 0-.549.085-.775.225a1.46 1.46 0 0 0 .137-.611 1.469 1.469 0 0 0-2.853-.5 1.463 1.463 0 0 0-1.65-.043 1.47 1.47 0 0 0 .024-.235 1.467 1.467 0 0 0-2.747-.727 1.456 1.456 0 0 0-.713-.19c-.813 0-1.473.659-1.473 1.473 0 .054.01.106.016.16a1.46 1.46 0 0 0-.654-.16c-.039 0-.075.008-.113.011a1.473 1.473 0 1 0-2.833-.567c0 .02.005.04.006.06a1.457 1.457 0 0 0-.391-.06c-.08 0-.158.011-.235.024l.002-.024a1.473 1.473 0 1 0-2.946 0c-.814 0-1.473.66-1.473 1.473 0 .083.01.161.024.24a1.47 1.47 0 0 0-.112 2.885l-.73.962 9.44 2.319 7.94-1.546 2.811-1.304-.143-1.028c.535-.22.914-.747.914-1.363Z" mask="url(#a)"/><path stroke="#161A1D" stroke-width=".4" d="M5.125 26.84a.642.642 0 0 1-.634-.537L1.206 6.578a.641.641 0 0 1 .634-.748h21.427a.642.642 0 0 1 .635.748l-3.285 19.725a.641.641 0 0 1-.634.538H5.125Z" mask="url(#a)"/><path stroke="#161A1D" stroke-width=".4" d="M23.267 5.989c.3 0 .527.268.478.564L20.46 26.277a.484.484 0 0 1-.478.405H5.125a.484.484 0 0 1-.477-.405L1.363 6.552a.484.484 0 0 1 .478-.564h21.426Zm0-.319H1.841a.801.801 0 0 0-.792.935l3.285 19.724a.8.8 0 0 0 .792.671h14.857a.8.8 0 0 0 .791-.67L24.06 6.603a.801.801 0 0 0-.792-.934Z" mask="url(#a)"/><path stroke="#161A1D" stroke-width=".4" d="M6.955 26.681h-2.24L1.27 5.99h3.224L6.955 26.68ZM11.434 26.681h-2.24L7.718 5.99h3.224l.492 20.692ZM15.914 26.681h-2.24l.492-20.692h3.224L15.914 26.68ZM20.393 26.681h-2.24L20.615 5.99h3.224L20.393 26.68Z" mask="url(#a)"/><path stroke="#161A1D" stroke-width=".4" d="M23.516 5.989c.17 0 .298.151.27.318l-3.355 20.146a.273.273 0 0 1-.27.229H4.947a.273.273 0 0 1-.27-.229L1.322 6.307a.273.273 0 0 1 .27-.318h21.924Zm0-.319H1.592a.591.591 0 0 0-.584.69l3.355 20.145a.59.59 0 0 0 .584.495H20.16a.59.59 0 0 0 .583-.495L24.1 6.36a.59.59 0 0 0-.584-.689ZM26.643 19v-.861l1.114-.192v-7.84l-1.114-.192v-.868h2.912L32.76 16.6h.04l3.104-7.554h3.001v.868l-1.114.191v7.841l1.114.192V19h-3.575v-.861l1.176-.192v-7.061l-.034-.007-3.234 7.766h-.895L29 10.893l-.034.006.048 4.164v2.884l1.203.192V19h-3.575ZM43.657 19l-2.324-8.982-.84-.103v-.868h3.226v.868l-1.032.157 1.298 5.476.301 1.278.041.007.397-1.278 2.003-6.508h1.182l2.024 6.508.39 1.353h.04l.356-1.353 1.285-5.483-1.114-.157v-.868h3.172v.868l-.787.103L51.047 19h-1.278l-2.16-6.89-.274-1.005h-.041l-.267 1.004L44.86 19h-1.203Z" mask="url(#a)"/></svg>