<svg xmlns="http://www.w3.org/2000/svg" width="300" height="169" fill="none"><path fill="#38414A" d="M0 0h300v169H0z"/><path fill="#38414A" d="M0 0h300v169H0z"/><path fill="#161A1D" d="M195 84.89a44.826 44.826 0 0 0-7.588-24.941 44.973 44.973 0 0 0-20.196-16.533 45.09 45.09 0 0 0-25.997-2.553 45.031 45.031 0 0 0-23.039 12.288 44.87 44.87 0 0 0-12.315 22.987 44.81 44.81 0 0 0 2.559 25.94 44.918 44.918 0 0 0 16.569 20.151 45.077 45.077 0 0 0 24.998 7.571H195v-7.527h-20.161a44.941 44.941 0 0 0 14.788-16.164A44.832 44.832 0 0 0 195 84.891Zm-22.962 30.279a11.27 11.27 0 0 1-12.489.486 11.227 11.227 0 0 1-4.337-4.871 11.195 11.195 0 0 1-.895-6.454 11.215 11.215 0 0 1 2.85-5.863 11.272 11.272 0 0 1 12.152-2.914 11.242 11.242 0 0 1 7.048 7.91 11.19 11.19 0 0 1-1.347 8.489 11.256 11.256 0 0 1-2.982 3.217Zm-.556-49.04a11.271 11.271 0 0 1 12.04 3.383 11.207 11.207 0 0 1 1.464 12.395 11.239 11.239 0 0 1-4.535 4.696 11.274 11.274 0 0 1-12.469-1.001 11.232 11.232 0 0 1-3.724-5.36 11.205 11.205 0 0 1 .685-8.551 11.243 11.243 0 0 1 6.539-5.572v.01Zm-21.491-18.611c2.227 0 4.404.66 6.255 1.895a11.23 11.23 0 0 1 4.143 5.045 11.202 11.202 0 0 1-2.46 12.239 11.27 11.27 0 0 1-12.276 2.403 11.24 11.24 0 0 1-5.039-4.155 11.212 11.212 0 0 1 1.438-14.156 11.264 11.264 0 0 1 7.939-3.271Zm-35.665 25.809a11.227 11.227 0 0 1 3.725-5.36 11.274 11.274 0 0 1 12.468-1.001 11.239 11.239 0 0 1 4.535 4.697 11.207 11.207 0 0 1-1.464 12.395 11.273 11.273 0 0 1-12.04 3.383 11.239 11.239 0 0 1-6.534-5.568 11.205 11.205 0 0 1-.69-8.546Zm29.328 39.358a11.25 11.25 0 0 1-5.207 3.935 11.274 11.274 0 0 1-12.157-2.91 11.207 11.207 0 0 1 2.382-17.191 11.272 11.272 0 0 1 12.492.49 11.221 11.221 0 0 1 4.498 7.324 11.212 11.212 0 0 1-2.008 8.352Zm2.574-27.785a3.763 3.763 0 0 1 2.329-3.477 3.778 3.778 0 0 1 4.11.816 3.762 3.762 0 0 1 .818 4.101A3.77 3.77 0 0 1 150 88.664a3.774 3.774 0 0 1-2.658-1.113 3.756 3.756 0 0 1-1.095-2.66l-.019.009Z"/></svg>