<svg xmlns="http://www.w3.org/2000/svg" width="342" height="513" fill="none"><path fill="#38414A" d="M0 0h342v513H0z"/><path fill="#161A1D" d="M174.245 286.22c-7.79-2.73-15.86-3.065-18.245-10.22v-10c2.25-1.115 8.68-8.775 9.36-14.76.4-1.415.71-6.475.71-7.615 0-6.245-.095-19.155 3.815-29.26-1.365-6.79-4.93-12.51-12.575-13.265-2.045-3.385-7.285-5.1-14.1-5.1-27.255.47-30.04 19.365-24.57 41.07-1.06.61-2.81 2.55-2.37 5.99.82 6.415 3.6 8.04 5.37 8.175.675 5.99 7.11 13.65 9.36 14.765v10c-5 15-35 0-35 40h60c0-17.74 9.95-25.385 18.245-29.78Z"/><path fill="#161A1D" d="M166 316c0-25 25-20 30-33.535v-6.375c-18.105 0-23.13-7.455-23.13-7.455 9.46-7.87-8.43-62.635 23.78-62.635 0 0 4.35-5 9.97-5 39.38 0 21.61 59.465 31.795 67.825 0 0-4.22 7.2-22.415 7.2v6.44C221 296 246 291 246 316h-80Z"/></svg>