<svg xmlns="http://www.w3.org/2000/svg" width="154" height="154" fill="none"><rect width="154" height="154" fill="#DCDFE4" rx="77"/><path fill="#8590A2" d="M78.123 92.11C74.228 90.745 70.192 90.578 69 87v-5c1.125-.558 4.34-4.388 4.68-7.38.2-.708.355-3.238.355-3.808 0-3.122-.047-9.577 1.907-14.63-.682-3.395-2.464-6.255-6.287-6.632-1.023-1.692-3.642-2.55-7.05-2.55-13.627.235-15.02 9.682-12.285 20.535-.53.305-1.405 1.275-1.185 2.995.41 3.207 1.8 4.02 2.685 4.088.337 2.995 3.555 6.825 4.68 7.382v5C54 94.5 39 87 39 107h30c0-8.87 4.975-12.692 9.123-14.89Z"/><path fill="#8590A2" d="M74 107c0-12.5 12.5-10 15-16.767v-3.188c-9.052 0-11.565-3.728-11.565-3.728C82.165 79.383 73.22 52 89.325 52c0 0 2.175-2.5 4.985-2.5 19.69 0 10.805 29.733 15.897 33.912 0 0-2.11 3.6-11.207 3.6v3.22C101.5 97 114 94.5 114 107H74Z"/></svg>