<svg xmlns="http://www.w3.org/2000/svg" viewBox="0 0 32 32" id="documentary" fill="none"><path fill="currentColor" d="M12.998 21.333a.667.667 0 1 0 0-1.333.667.667 0 0 0 0 1.333ZM15.792 27.28l-.119.052a.922.922 0 0 1-.136-.051.87.87 0 0 0-.861.009.795.795 0 0 0-.345.708 1.333 1.333 0 0 0 2.666 0 .794.794 0 0 0-.345-.708.87.87 0 0 0-.86-.01Z"/><path fill="currentColor" d="M30.24 11.003a.665.665 0 0 0-.578-.335h-.004c-.285.002-6.663.096-9.593 3.884a5.456 5.456 0 0 0-1.063-.604l.574-2.785c1.458-.57 6.753-2.89 6.753-6.494C26.329.685 24.798.1 24.49.023a.682.682 0 0 0-.855.731.643.643 0 0 0 .478.546c.01.004.882.437.882 3.37a3.582 3.582 0 0 1-1.258 2.44 9.354 9.354 0 0 0-1.523-4.148.666.666 0 1 0-1.104.747c.598.887 1.87 3.339 1.027 4.587a3.162 3.162 0 0 1-2.124-.96c-1.728-1.759-1.685-5.285-1.684-5.32a.666.666 0 0 0-.653-.679h-.013a.667.667 0 0 0-.667.653c-.002.166-.057 4.114 2.061 6.275.422.435.928.779 1.487 1.012a16.17 16.17 0 0 1-1.768.762.668.668 0 0 0-.434.495l-.619 3.01c-1.359-.28-2.76-.28-4.12 0l-.62-3.01a.67.67 0 0 0-.433-.495 16.102 16.102 0 0 1-1.77-.761 4.478 4.478 0 0 0 1.49-1.013c2.117-2.16 2.063-6.109 2.06-6.275a.696.696 0 0 0-.68-.654.667.667 0 0 0-.653.68c.001.036.05 3.55-1.68 5.317-.561.58-1.322.925-2.128.963-.844-1.248.43-3.7 1.027-4.587a.666.666 0 0 0-1.104-.747 9.351 9.351 0 0 0-1.523 4.15A3.584 3.584 0 0 1 6.332 4.67c0-2.892.85-3.353.83-3.353A.666.666 0 0 0 6.838.023C6.53.1 4.999.685 4.999 4.67c0 3.605 5.295 5.923 6.753 6.494l.574 2.785c-.371.16-.724.36-1.05.597-2.932-3.792-9.32-3.876-9.607-3.877h-.002a.666.666 0 0 0-.57 1.014c.165.269 3.854 6.227 8 6.915A10.44 10.44 0 0 0 9 20a17.375 17.375 0 0 0 1.37 6.884c1.154 3.317 2.819 4.16 3.555 4.374a2.178 2.178 0 0 0 1.74.74 2.175 2.175 0 0 0 1.74-.74c.736-.213 2.401-1.057 3.556-4.374A17.376 17.376 0 0 0 22.33 20a10.593 10.593 0 0 0-.082-1.282c4.151-.691 7.823-6.768 7.986-7.042a.667.667 0 0 0 .006-.673ZM2.99 12.098c1.952.224 5.533.98 7.302 3.393a5.604 5.604 0 0 0-.923 1.805c-2.57-.37-5.144-3.488-6.38-5.198ZM19.7 26.446C18.554 29.741 16.94 30 16.94 30a.619.619 0 0 0-.546.381c-.016.029-.171.283-.73.283-.56 0-.716-.254-.718-.255a.698.698 0 0 0-.543-.407c-.017-.002-1.63-.261-2.776-3.556A16.11 16.11 0 0 1 10.332 20c0-3.588 1.744-5.333 5.332-5.333s5.333 1.745 5.333 5.333a16.111 16.111 0 0 1-1.297 6.446Zm2.294-9.03a5.67 5.67 0 0 0-.949-1.913c1.773-2.422 5.367-3.18 7.312-3.405-1.218 1.734-3.788 4.933-6.363 5.318Z"/><path fill="currentColor" d="M18.33 21.333a.667.667 0 1 0 0-1.334.667.667 0 0 0 0 1.334Z"/></svg>