<svg xmlns="http://www.w3.org/2000/svg" viewBox="0 0 32 32" id="drama" fill="none"><g stroke="currentColor" stroke-linecap="round" stroke-linejoin="round"><path fill="currentColor" stroke-width="1.5" d="M10.75 11.5a.75.75 0 1 1 0-1.5.75.75 0 0 1 0 1.5ZM21.25 11.5a.75.75 0 1 1 0-1.5.75.75 0 0 1 0 1.5Z"/><path stroke-width="2" d="M16 31c8.284 0 15-6.716 15-15 0-8.284-6.716-15-15-15C7.716 1 1 7.716 1 16c0 8.284 6.716 15 15 15Z"/><path stroke-width="1.5" d="M9.25 21.25s2.25-3 6.75-3 6.75 3 6.75 3"/></g></svg>