<svg xmlns="http://www.w3.org/2000/svg" viewBox="0 0 33 32" id="external-link"><path d="M6.583 32h17.35c3.18 0 5.783-2.614 5.783-5.81V15.54a.969.969 0 0 0-.964-.968.969.969 0 0 0-.964.968v10.65c0 2.13-1.735 3.873-3.855 3.873H6.582c-2.12 0-3.855-1.742-3.855-3.872V8.762c0-2.13 1.735-3.872 3.855-3.872h10.602a.969.969 0 0 0 0-1.937H6.584C3.403 2.953.8 5.567.8 8.763V26.19C.8 29.386 3.402 32 6.583 32Z"/><path d="M32.8 9.78V.677c0-.049 0-.097-.048-.145l-.048-.049c0-.048-.049-.097-.049-.097-.048-.097-.144-.193-.289-.29-.048-.049-.096-.049-.144-.049L32.077 0h-9.061a.969.969 0 0 0 0 1.936h6.507l-14.12 14.088a.939.939 0 0 0 0 1.356.929.929 0 0 0 1.349 0l14.12-14.136v6.535c0 .533.434.968.964.968s.964-.435.964-.968Z"/></svg>