<svg xmlns="http://www.w3.org/2000/svg" viewBox="0 0 32 32" id="family"><path d="M26.4 8.71v-.012c-.025-1.626-.934-3.367-3.41-3.367h-.615a3.092 3.092 0 0 0 .973-2.246c0-1.703-1.376-3.085-3.06-3.085a3.08 3.08 0 0 0-3.071 3.085c0 .883.377 1.683.973 2.246h-.621c-.768 0-1.383.167-1.875.448a3.823 3.823 0 0 0-1.338-.224c.589-.563.96-1.357.96-2.246 0-1.696-1.344-3.072-3.002-3.072-1.657 0-3.008 1.376-3.008 3.072 0 .883.365 1.677.954 2.24h-.051c-.083 0-.173.006-.269.006-1.926-.096-2.931.96-3.206 1.888-.224.704-1.325 4.256-1.095 5.248.18.775 1.293 1.498 2.119 1.94L5.62 21.657a.404.404 0 0 0 .058.365.413.413 0 0 0 .332.172l2.394-.006.691 8.48c.077.813.64 1.299 1.51 1.305h.013c.148.013 2.695.013 2.842 0h.013c.25 0 .473-.044.672-.121.179.09.384.147.601.147h2.516c.243 0 .473-.064.672-.18.224.11.492.167.8.167h3.11c.89 0 1.472-.493 1.555-1.312v-.013l.192-2.732.685-9.55c.205.116.429.18.66.18h.012c.78 0 1.382-.698 1.453-1.344V8.711Zm-8.358-5.625a2.25 2.25 0 0 1 2.24-2.253 2.244 2.244 0 0 1 2.234 2.253 2.242 2.242 0 0 1-2.234 2.246 2.248 2.248 0 0 1-2.24-2.246Zm-7.91.224c0-1.235.98-2.24 2.182-2.24 1.197 0 2.176 1.005 2.176 2.24 0 1.235-.979 2.24-2.176 2.24-1.203 0-2.182-1.005-2.182-2.24Zm3.315 27.84c-.019 0-.038 0-.057.006-.237.02-2.458.02-2.701 0-.02 0-.039-.006-.058-.006-.576 0-.678-.282-.704-.55L9.21 21.74a.417.417 0 0 0-.41-.384l-2.214.006L8.551 14.9l.474.103a1.505 1.505 0 0 0 1.754-1.018 1.524 1.524 0 0 0-.794-1.85l-1.197-.563.73-1.83a.415.415 0 0 0-.23-.538.415.415 0 0 0-.538.23l-.781 1.965a.687.687 0 0 0 .339.87l1.325.628a.69.69 0 0 1 .358.838.683.683 0 0 1-.8.461l-.793-.173c-1.242-.627-1.882-1.228-1.952-1.523-.128-.563.55-3.149 1.081-4.813.07-.236.512-1.401 2.4-1.305h.045c.083-.007.16-.007.243-.007l1.824.007 1.824-.007c.083 0 .167.007.25.007h.045c.294-.013.55 0 .78.038-.524.634-.755 1.466-.768 2.272v4.589a2.622 2.622 0 0 0-.057 3.648 2.376 2.376 0 0 0-2.061 1.472l-1.683 4.115c-.243.589 0 1.274.544 1.555a1.198 1.198 0 0 0 1.645-.582l.608-1.018c.153 2.03.23 4.07.23 6.1v2.067c0 .179.032.345.096.499-.013.013-.032.013-.045.013Zm2.554-17.799a1.785 1.785 0 0 1 0 3.572 1.785 1.785 0 0 1 0-3.572Zm2.445 7.412a.416.416 0 0 0-.32.364 80.489 80.489 0 0 0-.346 7.45v2.067c0 .288-.23.525-.518.525h-.845v-6.291a.415.415 0 1 0-.832 0v6.291h-.845a.522.522 0 0 1-.518-.525v-2.067c0-2.477-.116-4.986-.346-7.45a.416.416 0 0 0-.32-.364.502.502 0 0 0-.09-.013.414.414 0 0 0-.352.198l-1.28 2.144c-.012.02-.019.039-.025.058a.37.37 0 0 1-.519.185c-.166-.09-.236-.307-.16-.505l1.684-4.115c.236-.59.8-.967 1.433-.967h3.52c.627 0 1.19.378 1.434.967l1.683 4.115c.077.192.006.416-.16.505a.433.433 0 0 1-.173.045.37.37 0 0 1-.345-.23c-.007-.02-.02-.039-.026-.058l-1.28-2.144a.442.442 0 0 0-.454-.185Zm6.508-3.034h-.025a.526.526 0 0 1-.365-.16.662.662 0 0 1-.154-.198.68.68 0 0 1-.064-.167l-.64-7.641a.411.411 0 0 0-.448-.378.411.411 0 0 0-.377.448l.64 7.648-.762 10.598-.192 2.727c-.025.262-.14.563-.736.563h-3.11a2.08 2.08 0 0 1-.211-.013c.057-.153.096-.32.096-.493v-2.067c0-2.029.076-4.077.23-6.099l.608 1.018a1.198 1.198 0 0 0 1.645.582c.544-.282.787-.966.544-1.562L19.95 18.42a2.366 2.366 0 0 0-2.061-1.472c.441-.467.71-1.1.71-1.792a2.614 2.614 0 0 0-2.605-2.617c-.358 0-.697.07-1.01.204V8.73c.012-.767.287-2.547 2.585-2.547h5.407c2.298 0 2.574 1.786 2.586 2.548v8.428c-.025.25-.307.564-.608.57Z"/></svg>