<svg xmlns="http://www.w3.org/2000/svg" viewBox="0 0 32 32" id="fantasy" fill="none"><path fill="currentColor" d="m24.727 21.293-3.567-9.868a7.971 7.971 0 0 1-.524-2.85V2.548c0-.68-.265-1.32-.746-1.802A2.527 2.527 0 0 0 18.088 0c-.939 0-1.799.513-2.244 1.34l-3.92 7.281a16.839 16.839 0 0 0-1.145 2.652L7.589 21.35C3.397 22.409 1 24.156 1 26.182 1 29.96 8.87 32 16.273 32s15.273-2.04 15.273-5.818c0-2.063-2.484-3.836-6.82-4.889ZM13.364 22.4c-1.699-.175-3.203-.502-4.286-.932l.397-1.253c1.112.338 2.43.584 3.889.727V22.4Zm-5.752 3.7 1.027-3.245c1.258.485 2.923.836 4.817 1.013a2.179 2.179 0 0 0 2.09 1.587H17c.995 0 1.828-.674 2.089-1.587 1.817-.17 3.435-.5 4.677-.954l1.143 3.163a.88.88 0 0 0 .05.106c-.525.558-3.65 1.453-8.686 1.453-5.052 0-8.18-.9-8.691-1.458a.643.643 0 0 0 .03-.078Zm7.206-2.827v-2.91c0-.4.327-.727.728-.727H17c.4 0 .727.326.727.728v2.909A.728.728 0 0 1 17 24h-1.454a.728.728 0 0 1-.728-.727Zm8-2.981.453 1.254c-1.066.392-2.497.691-4.09.855v-1.457c1.346-.132 2.578-.354 3.637-.652Zm-10.656-8.57a15.29 15.29 0 0 1 1.042-2.411l3.921-7.281c.33-.613 1.246-.746 1.737-.255.206.207.32.481.32.773v6.027c0 1.154.208 2.288.615 3.355l2.527 6.99c-.964.265-2.09.462-3.321.58A2.185 2.185 0 0 0 17 18.182h-1.454c-.9 0-1.672.547-2.006 1.325-1.357-.133-2.61-.364-3.63-.67l2.252-7.115Zm4.11 18.824c-8.143 0-13.817-2.3-13.817-4.364 0-1.14 1.77-2.338 4.613-3.183l-.82 2.591a1.25 1.25 0 0 0-.157.592c0 2.828 9.14 2.909 10.182 2.909 1.042 0 10.182-.082 10.182-2.91 0-.228-.07-.456-.207-.678l-.92-2.548c2.93.847 4.763 2.067 4.763 3.227 0 2.064-5.675 4.364-13.818 4.364Z"/></svg>