<svg xmlns="http://www.w3.org/2000/svg" viewBox="0 0 32 32" id="science_fiction" fill="none"><g><path stroke="currentColor" stroke-linecap="round" stroke-linejoin="round" stroke-width="2" d="M27.6 27.6c2.43-2.43-.794-9.594-7.2-16-6.406-6.406-13.57-9.63-16-7.2-2.43 2.43.793 9.593 7.2 16 6.406 6.407 13.57 9.63 16 7.2Z"/><path stroke="currentColor" stroke-linecap="round" stroke-linejoin="round" stroke-width="2" d="M20.4 20.4c6.407-6.406 9.63-13.57 7.2-16-2.43-2.43-9.594.793-16 7.2-6.406 6.406-9.63 13.57-7.2 16 2.43 2.43 9.593-.794 16-7.2Z"/><path fill="currentColor" d="M15.997 17.697a1.697 1.697 0 1 0 0-3.394 1.697 1.697 0 0 0 0 3.394Z"/></g></svg>