<svg xmlns="http://www.w3.org/2000/svg" viewBox="0 0 32 32" id="series" fill="none"><path fill="currentColor" d="M0 20a4 4 0 0 0 4 4h10.333a1 1 0 1 1 0 2H8a.667.667 0 1 0 0 1.333h16A.667.667 0 0 0 24 26h-6.333a1 1 0 1 1 0-2H28a4 4 0 0 0 4-4V8a4 4 0 0 0-4-4H4a4 4 0 0 0-4 4v12ZM1.333 9.333a4 4 0 0 1 4-4h21.334a4 4 0 0 1 4 4v9.334a4 4 0 0 1-4 4H5.333a4 4 0 0 1-4-4V9.333Z"/><path fill="currentColor" d="M6 8H4v1.333h2V8ZM28 8H8.667v1.333H28V8ZM6 11.333H4v1.334h2v-1.334ZM28 11.333H8.667v1.334H28v-1.334ZM6 14.667H4V16h2v-1.333ZM28 14.667H8.667V16H28v-1.333ZM6 18H4v1.333h2V18ZM28 18H8.667v1.333H28V18Z"/></svg>