<svg xmlns="http://www.w3.org/2000/svg" viewBox="0 0 32 32" id="star" fill="none"><g><path fill="currentColor" d="m17.462.98 3.67 7.983c.159.48.637.799 1.116.958l8.297 1.278c1.436 0 1.914 1.597.957 2.555l-6.063 6.228c-.319.319-.479.958-.479 1.437l1.436 8.623c.16 1.277-1.116 2.395-2.233 1.756l-7.499-4.151c-.479-.32-.957-.32-1.436 0l-7.499 4.151c-1.117.64-2.553-.319-2.233-1.756l1.435-8.623c.16-.48-.159-1.118-.478-1.437L.39 13.754c-.798-.958-.32-2.555.957-2.715l8.297-1.277c.479 0 .957-.48 1.117-.958L14.43.819c.797-1.117 2.393-1.117 3.03.16Z"/></g></svg>