<svg xmlns="http://www.w3.org/2000/svg" viewBox="0 0 32 32" id="youtube"><path d="M0 16C0 4.364 4.364 0 16 0s16 4.364 16 16-4.364 16-16 16S0 27.636 0 16Z"/><path fill="currentColor" d="M26.27 11.636a4.917 4.917 0 0 0-.845-2.167 2.908 2.908 0 0 0-2.152-.93C20.363 8.32 16 8.32 16 8.32s-4.364 0-7.273.218a2.91 2.91 0 0 0-2.094.931 4.916 4.916 0 0 0-.902 2.167 35.199 35.199 0 0 0-.204 3.535v1.658c0 1.76.204 3.535.204 3.535.106.778.395 1.521.844 2.167a3.39 3.39 0 0 0 2.298.93c1.687.16 7.127.219 7.127.219s4.364 0 7.273-.233a2.908 2.908 0 0 0 2.094-.916c.47-.64.779-1.383.902-2.167 0 0 .204-1.775.204-3.535v-1.658a35.193 35.193 0 0 0-.204-3.535ZM13.701 19.07v-6.138L19.36 16l-5.658 3.069Z"/></svg>